<svg fill="none" height="100%" width="100%" viewBox="0 0 350 400" xmlns:xlink="http://www.w3.org/1999/xlink" xmlns="http://www.w3.org/2000/svg"><defs><clipPath id="i0"><rect height="300" width="300" y="0" x="0" /></clipPath><g id="i1"><g id="i2"><g transform="translate(153.038,202.769)"><g transform="rotate(0)"><animateTransform repeatCount="indefinite" type="rotate" attributeName="transform" dur="4.004s" begin="0s" calcMode="spline" values="0; -2; -5; 1; -4; 0; -5; 0; 0" keyTimes="0; 0.125; 0.25; 0.316667; 0.5; 0.666667; 0.749999; 0.991667; 1" keySplines="0 0 1 1; 0 0 1 1; 0 0 1 1; 0 0 1 1; 0 0 1 1; 0 0 1 1; 0 0 1 1; 0 0 1 1" fill="freeze" /><g transform="scale(1,1) translate(-451.038,-465.769)"><g id="i3" transform="matrix(1,0,0,1,399.8,400.5)"><path fill="#fc6746" d="M-73.8,-91.5C-73.8,-91.5,-71.4,-14.7,-71.4,-14.7C-71.4,-14.7,-18.6,74.1,-18.6,74.1C-18.6,74.1,36.525,91.5,36.525,91.5C36.525,91.5,66.524,79.5,66.524,79.5C66.524,79.5,73.8,50.7,73.8,50.7C73.8,50.7,-4.8,-35.101,-4.8,-35.101C-4.8,-35.101,-73.8,-91.5,-73.8,-91.5Z" /></g><g id="i4" transform="matrix(1,0,0,1,394.438,398.675)"><path fill="#c44946" d="M-68.438,-89.675C-68.438,-89.675,-66.038,-12.875,-66.038,-12.875C-66.038,-12.875,-13.238,75.925,-13.238,75.925C-13.238,75.925,30.324,89.675,30.324,89.675C30.324,89.675,68.438,57.605,68.438,57.605C68.438,57.605,-10.762,-25.565,-10.762,-25.565C-10.762,-25.565,-59.566,-82.423,-59.566,-82.423C-59.566,-82.423,-68.438,-89.675,-68.438,-89.675Z" /></g><g id="i5" transform="matrix(1,0,0,1,354.719,369.63)"><path fill="#681450" d="M-28.719,-60.63C-28.719,-60.63,-26.319,16.17,-26.319,16.17C-26.319,16.17,0.116,60.63,0.116,60.63C0.116,60.63,28.72,3.204,28.72,3.204C28.72,3.204,-19.846,-53.378,-19.846,-53.378C-19.846,-53.378,-28.719,-60.63,-28.719,-60.63Z" /></g><g id="i6" transform="matrix(1,0,0,1,361.198,340.917)"><path fill="#8d0e5d" fill-rule="evenodd" d="M22.241,31.917C22.241,31.917,22.402,31.593,22.402,31.593C22.402,31.593,35.198,26.007,35.198,26.007C35.198,26.007,33.802,24.482,33.802,24.482C33.802,24.482,-26.325,-24.665,-26.325,-24.665C-26.325,-24.665,22.241,31.917,22.241,31.917ZM-35.198,-31.917C-35.198,-31.917,-29.055,-26.897,-29.055,-26.897C-29.055,-26.897,-35.198,-31.917,-35.198,-31.917Z" /></g><g id="i7" transform="matrix(1,0,0,1,396.097,409.241)"><path fill="#ecbd91" d="M54.179,76.331C54.179,76.331,-5.821,57.147,-5.821,57.147C-5.821,57.147,-52.621,-14.58,-52.621,-14.58C-52.621,-14.58,-59.221,-76.331,-59.221,-76.331C-59.221,-76.331,59.222,56.269,59.222,56.269C59.222,56.269,54.179,76.331,54.179,76.331Z" /></g></g></g></g></g><g id="i8"><g transform="translate(223.813,175)"><g transform="rotate(0)"><animateTransform repeatCount="indefinite" type="rotate" attributeName="transform" dur="4.004s" begin="0s" calcMode="spline" values="0; 7; 4; 10; 2; 8; 0; 0" keyTimes="0; 0.125; 0.316667; 0.5; 0.666667; 0.749999; 0.991667; 1" keySplines="0 0 1 1; 0 0 1 1; 0 0 1 1; 0 0 1 1; 0 0 1 1; 0 0 1 1; 0 0 1 1" fill="freeze" /><g transform="scale(1,1) translate(-406.813,-473)"><g id="i9" transform="matrix(1,0,0,1,400.269,400.1)"><path fill="#ffe8c9" d="M-38.269,-90.9C-38.269,-90.9,-16.332,77.7,-16.332,77.7C-16.332,77.7,-0.078,90.9,-0.078,90.9C-0.078,90.9,18.469,87.9,18.469,87.9C18.469,87.9,38.269,53.7,38.269,53.7C38.269,53.7,8.269,-40.755,8.269,-40.755C8.269,-40.755,-38.269,-90.9,-38.269,-90.9Z" /></g><g id="i3" transform="matrix(1,0,0,1,385.425,394.655)"><path fill="#fc6746" d="M-1.569,82.511C-1.569,82.511,3.712,85.455,3.712,85.455C3.712,85.455,12.465,78.855,12.465,78.855C12.465,78.855,-5.612,-56.145,-5.612,-56.145C-5.612,-56.145,23.426,-34.325,23.426,-34.325C23.426,-34.325,23.112,-35.31,23.112,-35.31C23.112,-35.31,-23.426,-85.455,-23.426,-85.455C-23.426,-85.455,-1.569,82.511,-1.569,82.511Z" /></g><g id="i4" transform="matrix(1,0,0,1,406.813,411.728)"><path fill="#ecbd91" d="M11.373,68.383C11.373,68.383,22.8,39.617,22.8,39.617C22.8,39.617,-6.544,-48.017,-6.544,-48.017C-6.544,-48.017,-22.8,-68.382,-22.8,-68.382C-22.8,-68.382,-8.923,59.983,-8.923,59.983" /></g><g id="i5" transform="matrix(1,0,0,1,385.425,351.821)"><path fill="#681450" d="M-23.425,-42.621C-23.425,-42.621,-12.824,38.855,-12.824,38.855C-12.824,38.855,1.878,42.621,1.878,42.621C1.878,42.621,-5.611,-13.311,-5.611,-13.311C-5.611,-13.311,23.425,8.509,23.425,8.509C23.425,8.509,23.113,7.524,23.113,7.524C23.113,7.524,-23.425,-42.621,-23.425,-42.621Z" /></g><g id="i6" transform="matrix(1,0,0,1,388.661,338.252)"><path fill="#8d0e5d" d="M-7.947,0.777C-7.947,0.777,-6.302,2.171,-6.302,2.171C-6.302,2.171,20.189,22.077,20.189,22.077C20.189,22.077,19.877,21.093,19.877,21.093C19.877,21.093,-20.19,-22.078,-20.19,-22.078C-20.19,-22.078,-7.947,0.777,-7.947,0.777Z" /></g><g id="i7" transform="matrix(1,0,0,1,375.569,394.655)"><path fill="#c44946" d="M-13.569,-85.455C-13.569,-85.455,8.287,82.511,8.287,82.511C8.287,82.511,13.569,85.455,13.569,85.455C13.569,85.455,-13.1,-84.95,-13.1,-84.95C-13.1,-84.95,-13.569,-85.455,-13.569,-85.455Z" /></g></g></g></g></g><g transform="matrix(1,0,0,1,-202.694,-182.326)" id="i10"><g id="i11" transform="matrix(1,0,0,1,398.365,400.972)"><path fill="#ffe8c9" fill-rule="evenodd" d="M14.71,-26.062C14.71,-26.062,7.51,10.973,7.51,10.973C7.51,10.973,-58.641,40.973,-58.641,40.973C-58.641,40.973,-84.023,50.298,-84.023,50.298C-84.023,50.298,-84.364,51.429,-84.364,51.429C-84.364,51.429,-40.641,58.028,-40.641,58.028C-40.641,58.028,-6.364,53.828,-6.364,53.828C-6.364,53.828,28.434,43.028,28.434,43.028C28.434,43.028,61.36,26.228,61.36,26.228C61.36,26.228,84.364,-0.448,84.364,-0.448C84.364,-0.448,45.912,-3.082,45.912,-3.082C45.912,-3.082,34.664,-32.272,34.664,-32.272C34.664,-32.272,14.71,-26.062,14.71,-26.062ZM22.436,-58.027C22.436,-58.027,21.588,-57.742,21.588,-57.742C21.588,-57.742,22.784,-57.902,22.784,-57.902C22.784,-57.902,22.436,-58.027,22.436,-58.027Z" /></g><g id="i12" transform="matrix(1,0,0,1,427.891,407.61)"><path fill="#6b0338" d="M5.138,-12.3C5.138,-12.3,5.138,12.3,5.138,12.3C5.138,12.3,-5.138,-6.638,-5.138,-6.638C-5.138,-6.638,0.031,-6.638,5.138,-12.3Z" /></g><g id="i9" transform="matrix(1,0,0,1,399.671,397.17)"><path fill="#fe6c45" d="M20.283,-53.939C20.283,-53.939,7.929,-49.77,7.929,-49.77C7.929,-49.77,-38.947,-34.171,-38.947,-34.171C-38.947,-34.171,-65.947,-10.17,-65.947,-10.17C-65.947,-10.17,-85.329,54.1,-85.329,54.1C-85.329,54.1,-59.947,44.775,-59.947,44.775C-59.947,44.775,6.204,14.774,6.204,14.774C6.204,14.774,13.404,-22.26,13.404,-22.26C13.404,-22.26,33.357,-28.47,33.357,-28.47C33.357,-28.47,44.604,0.72,44.604,0.72C44.604,0.72,83.057,3.354,83.057,3.354C83.057,3.354,85.329,0.72,85.329,0.72C85.329,0.72,46.928,-44.97,46.928,-44.97C46.928,-44.97,21.477,-54.1,21.477,-54.1C21.477,-54.1,20.283,-53.939,20.283,-53.939Z" /></g><g id="i3" transform="matrix(1,0,0,1,437.595,361.213)"><path fill="#ffa05c" d="M9.005,-9.013C9.005,-9.013,-16.447,-18.143,-16.447,-18.143C-16.447,-18.143,-17.642,-17.982,-17.642,-17.982C-17.642,-17.982,-29.995,-13.813,-29.995,-13.813C-29.995,-13.813,-31.827,-13.203,-31.827,-13.203C-31.827,-13.203,-19.391,-13.903,-19.391,-13.903C-19.391,-13.903,5.12,-4.268,5.12,-4.268C5.12,-4.268,31.828,18.143,31.828,18.143C31.828,18.143,9.005,-9.013,9.005,-9.013Z" /></g><g id="i4" transform="matrix(1,0,0,1,338.187,407.446)"><path fill="#d86b35" d="M2.12,34.235C2.12,34.235,1.538,34.065,1.538,34.065C1.538,34.065,18.914,-27.832,24.187,-44.994C24.187,-44.994,22.538,-44.445,22.538,-44.445C22.538,-44.445,-4.462,-20.446,-4.462,-20.446C-4.462,-20.446,-24.187,44.994,-24.187,44.994C-24.187,44.994,1.538,34.499,1.538,34.499C1.538,34.499,2.12,34.235,2.12,34.235Z" /></g><g id="i5" transform="matrix(1,0,0,1,430.657,413.655)"><path fill="#bc2979" d="M-2.371,-2.484C-2.371,-2.484,2.371,6.255,2.371,6.255C2.371,6.255,2.371,-5.017,2.371,-5.017C2.371,-5.017,-0.782,-6.255,-0.782,-6.255C-0.782,-6.255,-2.371,-2.484,-2.371,-2.484Z" /></g><g id="i6" transform="matrix(1,0,0,1,350.584,450.255)"><path fill="#ecbd91" d="M-36.584,2.145C-36.584,2.145,7.141,8.745,7.141,8.745C7.141,8.745,36.585,5.137,36.585,5.137C36.585,5.137,-10.859,-8.745,-10.859,-8.745C-10.859,-8.745,-36.584,2.145,-36.584,2.145Z" /></g><g id="i7" transform="matrix(1,0,0,1,422.277,374.895)"><path fill="#231f20" d="M10.277,-6.105C10.277,-6.105,-10.277,0,-10.277,0C-10.277,0,2.38,6.105,2.38,6.105C2.38,6.105,10.277,-6.105,10.277,-6.105Z" /></g></g><g id="i13"><g transform="translate(189.421,202.521)"><g transform="scale(1,1)"><animateTransform repeatCount="indefinite" type="scale" attributeName="transform" dur="4.004s" begin="0s" calcMode="spline" values="1 1; 1 1; 1 0; 1 1; 1 1" keyTimes="0; 0.333333; 0.358333; 0.383333; 1" keySplines="0 0 1 1; 0 0 1 1; 0 0 1 1; 0 0 1 1" fill="freeze" /><g transform="translate(-405.802,-333.521)"><g id="i6" transform="matrix(1,0,0,1,405.802,333.521)"><path fill="#231f20" d="M-4.056,-12.48C-4.056,-12.48,-9.803,-5.836,-9.803,-5.836C-9.803,-5.836,-2.18,12.48,-2.18,12.48C-2.18,12.48,6.618,5.419,6.618,5.419C6.618,5.419,9.803,5.939,9.803,5.939C9.803,5.939,1.643,-11.514,1.643,-11.514C1.643,-11.514,-4.056,-12.48,-4.056,-12.48Z" /></g><g id="i7" transform="matrix(1,0,0,1,400.289,329.306)"><path fill="#ffffff" d="M1.575,-4.668C1.575,-4.668,-1.829,-0.09,-1.829,-0.09C-1.829,-0.09,1.829,4.668,1.829,4.668C1.829,4.668,1.575,-4.668,1.575,-4.668Z" /></g></g></g></g></g><g id="i14"><g transform="translate(244.728,189.379)"><g transform="scale(0.8,0.8)"><animateTransform repeatCount="indefinite" type="scale" attributeName="transform" dur="4.004s" begin="0s" calcMode="spline" values="0.8 0.8; 0.8 0.8; 0.8 -0.2; 0.8 0.8; 0.8 0.8" keyTimes="0; 0.333333; 0.358333; 0.383333; 1" keySplines="0 0 1 1; 0 0 1 1; 0 0 1 1; 0 0 1 1" fill="freeze" /><g transform="translate(-405.802,-333.521)"><g id="i6" transform="matrix(1,0,0,1,405.802,333.521)"><path fill="#231f20" d="M-4.056,-12.48C-4.056,-12.48,-9.803,-5.836,-9.803,-5.836C-9.803,-5.836,-2.18,12.48,-2.18,12.48C-2.18,12.48,6.618,5.419,6.618,5.419C6.618,5.419,9.803,5.939,9.803,5.939C9.803,5.939,1.643,-11.514,1.643,-11.514C1.643,-11.514,-4.056,-12.48,-4.056,-12.48Z" /></g><g id="i7" transform="matrix(1,0,0,1,400.289,329.306)"><path fill="#ffffff" d="M1.575,-4.668C1.575,-4.668,-1.829,-0.09,-1.829,-0.09C-1.829,-0.09,1.829,4.668,1.829,4.668C1.829,4.668,1.575,-4.668,1.575,-4.668Z" /></g></g></g></g></g></g></defs><g id="i15"><g transform="translate(173,335.487)"><g transform="rotate(0)"><animateTransform repeatCount="indefinite" type="rotate" attributeName="transform" dur="4.004s" begin="0s" calcMode="spline" values="0; 3; -5; 7; 2.5; 6; 13; 7; 3.471; 6; 2; 7; 6.36; 0; 0" keyTimes="0; 0.166666; 0.216666; 0.266667; 0.341667; 0.416667; 0.483333; 0.533333; 0.608333; 0.675; 0.741666; 0.783333; 0.891667; 0.991667; 1" keySplines="0 0 1 1; 0 0 1 1; 0 0 1 1; 0 0 1 1; 0 0 1 1; 0 0 1 1; 0 0 1 1; 0 0 1 1; 0 0 1 1; 0 0 1 1; 0 0 1 1; 0 0 1 1; 0 0 1 1; 0 0 1 1" fill="freeze" /><g transform="scale(1,1) translate(-448,-409.987)"><g id="i12" transform="matrix(1,0,0,1,399.707,400.936)"><path fill="#da4938" d="M-25.232,-48.064C-25.232,-48.064,-71.707,-29.585,-71.707,-29.585C-71.707,-29.585,-50.583,-9.947,-50.583,-9.947C-50.583,-9.947,-40.434,31.924,-40.434,31.924C-40.434,31.924,-4.229,48.064,-4.229,48.064C-4.229,48.064,62.355,14.867,62.355,14.867C62.355,14.867,71.706,10.764,71.706,10.764C71.706,10.764,57.014,-7.947,57.014,-7.947C57.014,-7.947,30.603,-32.994,30.603,-32.994C30.603,-32.994,1.713,-26.25,1.713,-26.25C1.713,-26.25,-25.232,-48.064,-25.232,-48.064Z" /></g><g id="i9" transform="matrix(1,0,0,1,392.958,375.453)"><path fill="#fe6c45" d="M-18.483,-22.581C-18.483,-22.581,-18.748,-22.475,-18.748,-22.475C-18.748,-22.475,-18.559,-22.549,-18.559,-22.549C-18.559,-22.549,-42.887,-2.904,-42.887,-2.904C-42.887,-2.904,-42.967,-1.004,-42.967,-1.004C-42.967,-1.004,-7.471,22.581,-7.471,22.581C-7.471,22.581,22.477,15.326,22.477,15.326C22.477,15.326,42.967,-1.986,42.967,-1.986C42.967,-1.986,42.463,-2.664,42.463,-2.664C42.463,-2.664,37.352,-7.51,37.352,-7.51C37.352,-7.51,8.462,-0.766,8.462,-0.766C8.462,-0.766,-18.483,-22.581,-18.483,-22.581Z" /></g><g id="i3" transform="matrix(1,0,0,1,351.199,372.237)"><path fill="#f6c19f" d="M-23.199,-0.886C-23.199,-0.886,-2.076,18.752,-2.076,18.752C-2.076,18.752,-1.935,19.334,-1.935,19.334C-1.935,19.334,-1.128,0.312,-1.128,0.312C-1.128,0.312,23.199,-19.334,23.199,-19.334C23.199,-19.334,-23.199,-0.886,-23.199,-0.886Z" /></g><g id="i4" transform="matrix(1,0,0,1,372.723,410.774)"><path fill="#c44946" d="M-23.599,-19.786C-23.599,-19.786,-13.451,22.085,-13.451,22.085C-13.451,22.085,22.755,38.225,22.755,38.225C22.755,38.225,23.599,37.805,23.599,37.805C23.599,37.805,14.993,21.312,14.993,21.312C14.993,21.312,-22.651,-38.225,-22.651,-38.225C-22.651,-38.225,-23.599,-19.786,-23.599,-19.786Z" /></g><g id="i5" transform="matrix(1,0,0,1,339.193,381.607)"><path fill="#ecbd91" d="M9.931,9.382C9.931,9.382,10.072,9.964,10.072,9.964C10.072,9.964,10.879,-9.058,10.879,-9.058C10.879,-9.058,-10.879,-9.964,-10.879,-9.964C-10.879,-9.964,9.931,9.382,9.931,9.382Z" /></g><g id="i6" transform="matrix(1,0,0,1,415.632,429.493)"><path fill="#a94946" d="M-35.435,7.682C-35.435,7.682,-49.882,6.254,-49.882,6.254C-49.882,6.254,-20.154,19.507,-20.154,19.507C-20.154,19.507,46.43,-13.69,46.43,-13.69C46.43,-13.69,49.882,-15.206,49.882,-15.206C49.882,-15.206,49.698,-18.51,49.698,-18.51C49.698,-18.51,5.315,-19.507,5.315,-19.507C5.315,-19.507,-35.435,7.682,-35.435,7.682Z" /></g><g id="i7" transform="matrix(1,0,0,1,431.266,394.834)"><path fill="#943a3b" d="M-17.42,-23.048C-17.42,-23.048,-33.31,-0.201,-33.31,-0.201C-33.31,-0.201,-12.467,16.225,-12.467,16.225C-12.467,16.225,12.974,25.833,12.974,25.833C12.974,25.833,18.914,26.893,18.914,26.893C18.914,26.893,25.989,23.366,25.989,23.366C25.989,23.366,33.311,8.159,33.311,8.159C33.311,8.159,25.455,-1.844,25.455,-1.844C25.455,-1.844,-0.956,-26.892,-0.956,-26.892C-0.956,-26.892,-17.42,-23.048,-17.42,-23.048Z" /></g></g></g></g></g><g transform="matrix(1,0,0,1,-161,-70)" id="i16"><g id="i4" transform="matrix(1,0,0,1,399.824,400)"><path fill="#ea6a43" d="M-4.53,-42C-4.53,-42,-14.824,-22.035,-14.824,-22.035C-14.824,-22.035,-11.205,33.253,-11.205,33.253C-11.205,33.253,-14.129,42,-14.129,42C-14.129,42,2.071,42,2.071,42C2.071,42,14.823,-12,14.823,-12C14.823,-12,14.671,-35.835,14.671,-35.835C14.671,-35.835,-4.53,-42,-4.53,-42Z" /></g><g id="i5" transform="matrix(1,0,0,1,395.316,430.983)"><path fill="#782340" d="M-7.086,-3.664C-7.086,-3.664,-6.698,2.272,-6.698,2.272C-6.698,2.272,-9.621,11.017,-9.621,11.017C-9.621,11.017,6.579,11.017,6.579,11.017C6.579,11.017,9.621,-1.872,9.621,-1.872C9.621,-1.872,1.777,-11.017,1.777,-11.017C1.777,-11.017,-7.086,-3.664,-7.086,-3.664Z" /></g><g id="i6" transform="matrix(1,0,0,1,397.746,403.542)"><path fill="#a94946" d="M-11.762,-10.532C-11.762,-10.532,-9.517,23.777,-9.517,23.777C-9.517,23.777,-0.652,16.423,-0.652,16.423C-0.652,16.423,1.068,18.429,1.068,18.429C1.068,18.429,2.077,16.423,2.077,16.423C2.077,16.423,11.762,-23.777,11.762,-23.777C11.762,-23.777,-11.762,-10.532,-11.762,-10.532Z" /></g><g id="i7" transform="matrix(1,0,0,1,392.255,430.983)"><path fill="#662340" d="M-4.025,-3.664C-4.025,-3.664,-3.636,2.272,-3.636,2.272C-3.636,2.272,-6.56,11.017,-6.56,11.017C-6.56,11.017,1.839,11.017,1.839,11.017C1.839,11.017,1.839,0.383,1.839,0.383C1.839,0.383,6.56,-9.012,6.56,-9.012C6.56,-9.012,4.839,-11.017,4.839,-11.017C4.839,-11.017,-4.025,-3.664,-4.025,-3.664Z" /></g></g><g transform="matrix(1,0,0,1,-217,-39.5)" id="i17"><g id="i7" transform="matrix(1,0,0,1,399.675,400.321)"><path fill="#782340" d="M12.671,-18.678C12.671,-18.678,-9.399,-15.168,-9.399,-15.168C-9.399,-15.168,-12.675,18.679,-12.675,18.679C-12.675,18.679,0.32,18.522,0.32,18.522C0.32,18.522,12.676,-18.678,12.676,-18.678C12.676,-18.678,12.671,-18.678,12.671,-18.678Z" /></g></g><g transform="matrix(1,0,0,1,-194,-81.5)" id="i18"><g id="i4" transform="matrix(1,0,0,1,399.862,400.4)"><path fill="#fee5c7" d="M24.339,-51.6C24.339,-51.6,-14.661,-43.8,-14.661,-43.8C-14.661,-43.8,-30.262,-25.199,-30.262,-25.199C-30.262,-25.199,-47.137,0.024,-47.137,0.024C-47.137,0.024,-54.862,48.345,-54.862,48.345C-54.862,48.345,-38.661,51.6,-38.661,51.6C-38.661,51.6,-23.062,49.2,-23.062,49.2C-23.062,49.2,5.737,37.801,5.737,37.801C5.737,37.801,39.779,12.601,39.779,12.601C39.779,12.601,45.339,-2.655,45.339,-2.655C45.339,-2.655,54.861,-27.6,54.861,-27.6C54.861,-27.6,45.339,-42.6,45.339,-42.6C45.339,-42.6,24.339,-51.6,24.339,-51.6Z" /></g><g id="i5" transform="matrix(1,0,0,1,399.644,421.179)"><path fill="#da997d" d="M-26.644,-5.87C-26.644,-5.87,-43.532,29.798,-43.532,29.798C-43.532,29.798,-38.444,30.82,-38.444,30.82C-38.444,30.82,-32.72,29.941,-32.72,29.941C-32.72,29.941,-17.765,26.41,-17.765,26.41C-17.765,26.41,5.956,17.023,5.956,17.023C5.956,17.023,39.998,-8.18,39.998,-8.18C39.998,-8.18,42.103,-13.958,42.103,-13.958C42.103,-13.958,43.532,-24.434,43.532,-24.434C43.532,-24.434,5.203,-30.82,5.203,-30.82C5.203,-30.82,-26.644,-5.87,-26.644,-5.87Z" /></g><g id="i6" transform="matrix(1,0,0,1,413.262,370.299)"><path fill="#d28072" d="M10.938,-21.5C10.938,-21.5,-28.062,-13.699,-28.062,-13.699C-28.062,-13.699,-32.255,-8.701,-32.255,-8.701C-32.255,-8.701,-32.346,-3.5,-32.346,-3.5C-32.346,-3.5,-10.402,21.5,-10.402,21.5C-10.402,21.5,32.346,-11.857,32.346,-11.857C32.346,-11.857,31.938,-12.5,31.938,-12.5C31.938,-12.5,10.938,-21.5,10.938,-21.5Z" /></g><g id="i7" transform="matrix(1,0,0,1,425.438,378.273)"><path fill="#ecbd91" d="M19.875,-20.297C19.875,-20.297,19.762,-20.473,19.762,-20.473C19.762,-20.473,19.615,-20.536,19.615,-20.536C19.615,-20.536,15.452,-16.163,15.452,-16.163C15.452,-16.163,-20.591,12.267,-20.591,12.267C-20.591,12.267,17.737,18.471,17.737,18.471C17.737,18.471,17.458,20.522,17.458,20.522C17.458,20.522,17.561,20.536,17.561,20.536C17.561,20.536,20.59,6.471,20.59,6.471C20.59,6.471,15.452,-12.473,15.452,-12.473C15.452,-12.473,19.875,-20.297,19.875,-20.297Z" /></g></g><g transform="matrix(1,0,0,1,-217,-70)" id="i19"><g id="i9" transform="matrix(1,0,0,1,400.081,400.581)"><path fill="#94293b" d="M10.48,-52.419C10.48,-52.419,-3.32,-49.419,-3.32,-49.419C-3.32,-49.419,-20.12,-23.619,-20.12,-23.619C-20.12,-23.619,-24.995,-10.42,-24.995,-10.42C-24.995,-10.42,-32.082,18.38,-32.082,18.38C-32.082,18.38,-32.082,50.526,-32.082,50.526C-32.082,50.526,-15.995,48.98,-15.995,48.98C-15.995,48.98,-11.12,24.981,-11.12,24.981C-11.12,24.981,0.004,-0.276,0.004,-0.276C0.004,-0.276,9.281,52.419,9.281,52.419C9.281,52.419,23.004,51.981,23.004,51.981C23.004,51.981,28.48,48.98,28.48,48.98C28.48,48.98,32.081,-27.475,32.081,-27.475C32.081,-27.475,10.48,-52.419,10.48,-52.419Z" /></g><g id="i3" transform="matrix(1,0,0,1,418.676,443.18)"><path fill="#782340" d="M-10.451,3.36C-10.451,3.36,-9.313,9.82,-9.313,9.82C-9.313,9.82,4.411,9.381,4.411,9.381C4.411,9.381,9.886,6.381,9.886,6.381C9.886,6.381,10.451,-5.593,10.451,-5.593C10.451,-5.593,-0.313,-9.82,-0.313,-9.82C-0.313,-9.82,-10.451,3.36,-10.451,3.36Z" /></g><g id="i4" transform="matrix(1,0,0,1,423.451,412.603)"><path fill="#a94946" d="M-8.71,-29.123C-8.71,-29.123,-5.089,20.758,-5.089,20.758C-5.089,20.758,-6.409,40.151,-6.409,40.151C-6.409,40.151,-0.363,39.958,-0.363,39.958C-0.363,39.958,5.111,36.958,5.111,36.958C5.111,36.958,8.711,-39.497,8.711,-39.497C8.711,-39.497,8.143,-40.152,8.143,-40.152C8.143,-40.152,-8.71,-29.123,-8.71,-29.123Z" /></g><g id="i5" transform="matrix(1,0,0,1,423.083,443.057)"><path fill="#662340" d="M-6.043,9.696C-6.043,9.696,0.002,9.504,0.002,9.504C0.002,9.504,5.478,6.504,5.478,6.504C5.478,6.504,6.042,-5.473,6.042,-5.473C6.042,-5.473,-4.722,-9.697,-4.722,-9.697C-4.722,-9.697,-6.043,9.696,-6.043,9.696Z" /></g><g id="i6" transform="matrix(1,0,0,1,384.034,415.209)"><path fill="#c44946" d="M0,-21.528C0,-21.528,-9.692,-1.129,-9.692,-1.129C-9.692,-1.129,-16.034,33.752,-16.034,33.752C-16.034,33.752,-16.034,35.897,-16.034,35.897C-16.034,35.897,0.052,34.351,0.052,34.351C0.052,34.351,4.928,10.352,4.928,10.352C4.928,10.352,16.034,-14.865,16.034,-14.865C16.034,-14.865,15.728,-28.138,15.728,-28.138C15.728,-28.138,8.269,-35.897,8.269,-35.897C8.269,-35.897,0,-21.528,0,-21.528Z" /></g><g id="i7" transform="matrix(1,0,0,1,377.04,442.234)"><path fill="#782340" d="M-9.04,-5.695C-9.04,-5.695,-9.04,8.872,-9.04,8.872C-9.04,8.872,7.046,7.327,7.046,7.327C7.046,7.327,9.04,-2.488,9.04,-2.488C9.04,-2.488,1.046,-8.872,1.046,-8.872C1.046,-8.872,-9.04,-5.695,-9.04,-5.695Z" /></g></g><g id="i20"><g transform="translate(231.438,276.237)"><g transform="rotate(0)"><animateTransform repeatCount="indefinite" type="rotate" attributeName="transform" dur="4.004s" begin="0s" calcMode="spline" values="0; -3; 3; 2; 0; 0" keyTimes="0; 0.25; 0.5; 0.749999; 0.991667; 1" keySplines="0 0 1 1; 0 0 1 1; 0 0 1 1; 0 0 1 1; 0 0 1 1" fill="freeze" /><g transform="scale(1,1) translate(-207.438,-257.337)"><g clip-path="url(#i0)"><g><g transform="translate(153.038,202.769)"><g transform="rotate(0)"><animateTransform repeatCount="indefinite" type="rotate" attributeName="transform" dur="4.004s" begin="0s" calcMode="spline" values="0; -2; -5; 1; -4; 0; -5; 0; 0" keyTimes="0; 0.125; 0.25; 0.316667; 0.5; 0.666667; 0.749999; 0.991667; 1" keySplines="0 0 1 1; 0 0 1 1; 0 0 1 1; 0 0 1 1; 0 0 1 1; 0 0 1 1; 0 0 1 1; 0 0 1 1" fill="freeze" /><g transform="scale(1,1) translate(-451.038,-465.769)"><g transform="matrix(1,0,0,1,399.8,400.5)"><path fill="#fc6746" d="M-73.8,-91.5C-73.8,-91.5,-71.4,-14.7,-71.4,-14.7C-71.4,-14.7,-18.6,74.1,-18.6,74.1C-18.6,74.1,36.525,91.5,36.525,91.5C36.525,91.5,66.524,79.5,66.524,79.5C66.524,79.5,73.8,50.7,73.8,50.7C73.8,50.7,-4.8,-35.101,-4.8,-35.101C-4.8,-35.101,-73.8,-91.5,-73.8,-91.5Z" /></g><g transform="matrix(1,0,0,1,394.438,398.675)"><path fill="#c44946" d="M-68.438,-89.675C-68.438,-89.675,-66.038,-12.875,-66.038,-12.875C-66.038,-12.875,-13.238,75.925,-13.238,75.925C-13.238,75.925,30.324,89.675,30.324,89.675C30.324,89.675,68.438,57.605,68.438,57.605C68.438,57.605,-10.762,-25.565,-10.762,-25.565C-10.762,-25.565,-59.566,-82.423,-59.566,-82.423C-59.566,-82.423,-68.438,-89.675,-68.438,-89.675Z" /></g><g transform="matrix(1,0,0,1,354.719,369.63)"><path fill="#681450" d="M-28.719,-60.63C-28.719,-60.63,-26.319,16.17,-26.319,16.17C-26.319,16.17,0.116,60.63,0.116,60.63C0.116,60.63,28.72,3.204,28.72,3.204C28.72,3.204,-19.846,-53.378,-19.846,-53.378C-19.846,-53.378,-28.719,-60.63,-28.719,-60.63Z" /></g><g transform="matrix(1,0,0,1,361.198,340.917)"><path fill="#8d0e5d" fill-rule="evenodd" d="M22.241,31.917C22.241,31.917,22.402,31.593,22.402,31.593C22.402,31.593,35.198,26.007,35.198,26.007C35.198,26.007,33.802,24.482,33.802,24.482C33.802,24.482,-26.325,-24.665,-26.325,-24.665C-26.325,-24.665,22.241,31.917,22.241,31.917ZM-35.198,-31.917C-35.198,-31.917,-29.055,-26.897,-29.055,-26.897C-29.055,-26.897,-35.198,-31.917,-35.198,-31.917Z" /></g><g transform="matrix(1,0,0,1,396.097,409.241)"><path fill="#ecbd91" d="M54.179,76.331C54.179,76.331,-5.821,57.147,-5.821,57.147C-5.821,57.147,-52.621,-14.58,-52.621,-14.58C-52.621,-14.58,-59.221,-76.331,-59.221,-76.331C-59.221,-76.331,59.222,56.269,59.222,56.269C59.222,56.269,54.179,76.331,54.179,76.331Z" /></g></g></g></g></g><g><g transform="translate(223.813,175)"><g transform="rotate(0)"><animateTransform repeatCount="indefinite" type="rotate" attributeName="transform" dur="4.004s" begin="0s" calcMode="spline" values="0; 7; 4; 10; 2; 8; 0; 0" keyTimes="0; 0.125; 0.316667; 0.5; 0.666667; 0.749999; 0.991667; 1" keySplines="0 0 1 1; 0 0 1 1; 0 0 1 1; 0 0 1 1; 0 0 1 1; 0 0 1 1; 0 0 1 1" fill="freeze" /><g transform="scale(1,1) translate(-406.813,-473)"><g transform="matrix(1,0,0,1,400.269,400.1)"><path fill="#ffe8c9" d="M-38.269,-90.9C-38.269,-90.9,-16.332,77.7,-16.332,77.7C-16.332,77.7,-0.078,90.9,-0.078,90.9C-0.078,90.9,18.469,87.9,18.469,87.9C18.469,87.9,38.269,53.7,38.269,53.7C38.269,53.7,8.269,-40.755,8.269,-40.755C8.269,-40.755,-38.269,-90.9,-38.269,-90.9Z" /></g><g transform="matrix(1,0,0,1,385.425,394.655)"><path fill="#fc6746" d="M-1.569,82.511C-1.569,82.511,3.712,85.455,3.712,85.455C3.712,85.455,12.465,78.855,12.465,78.855C12.465,78.855,-5.612,-56.145,-5.612,-56.145C-5.612,-56.145,23.426,-34.325,23.426,-34.325C23.426,-34.325,23.112,-35.31,23.112,-35.31C23.112,-35.31,-23.426,-85.455,-23.426,-85.455C-23.426,-85.455,-1.569,82.511,-1.569,82.511Z" /></g><g transform="matrix(1,0,0,1,406.813,411.728)"><path fill="#ecbd91" d="M11.373,68.383C11.373,68.383,22.8,39.617,22.8,39.617C22.8,39.617,-6.544,-48.017,-6.544,-48.017C-6.544,-48.017,-22.8,-68.382,-22.8,-68.382C-22.8,-68.382,-8.923,59.983,-8.923,59.983" /></g><g transform="matrix(1,0,0,1,385.425,351.821)"><path fill="#681450" d="M-23.425,-42.621C-23.425,-42.621,-12.824,38.855,-12.824,38.855C-12.824,38.855,1.878,42.621,1.878,42.621C1.878,42.621,-5.611,-13.311,-5.611,-13.311C-5.611,-13.311,23.425,8.509,23.425,8.509C23.425,8.509,23.113,7.524,23.113,7.524C23.113,7.524,-23.425,-42.621,-23.425,-42.621Z" /></g><g transform="matrix(1,0,0,1,388.661,338.252)"><path fill="#8d0e5d" d="M-7.947,0.777C-7.947,0.777,-6.302,2.171,-6.302,2.171C-6.302,2.171,20.189,22.077,20.189,22.077C20.189,22.077,19.877,21.093,19.877,21.093C19.877,21.093,-20.19,-22.078,-20.19,-22.078C-20.19,-22.078,-7.947,0.777,-7.947,0.777Z" /></g><g transform="matrix(1,0,0,1,375.569,394.655)"><path fill="#c44946" d="M-13.569,-85.455C-13.569,-85.455,8.287,82.511,8.287,82.511C8.287,82.511,13.569,85.455,13.569,85.455C13.569,85.455,-13.1,-84.95,-13.1,-84.95C-13.1,-84.95,-13.569,-85.455,-13.569,-85.455Z" /></g></g></g></g></g><g transform="matrix(1,0,0,1,-202.694,-182.326)"><g transform="matrix(1,0,0,1,398.365,400.972)"><path fill="#ffe8c9" fill-rule="evenodd" d="M14.71,-26.062C14.71,-26.062,7.51,10.973,7.51,10.973C7.51,10.973,-58.641,40.973,-58.641,40.973C-58.641,40.973,-84.023,50.298,-84.023,50.298C-84.023,50.298,-84.364,51.429,-84.364,51.429C-84.364,51.429,-40.641,58.028,-40.641,58.028C-40.641,58.028,-6.364,53.828,-6.364,53.828C-6.364,53.828,28.434,43.028,28.434,43.028C28.434,43.028,61.36,26.228,61.36,26.228C61.36,26.228,84.364,-0.448,84.364,-0.448C84.364,-0.448,45.912,-3.082,45.912,-3.082C45.912,-3.082,34.664,-32.272,34.664,-32.272C34.664,-32.272,14.71,-26.062,14.71,-26.062ZM22.436,-58.027C22.436,-58.027,21.588,-57.742,21.588,-57.742C21.588,-57.742,22.784,-57.902,22.784,-57.902C22.784,-57.902,22.436,-58.027,22.436,-58.027Z" /></g><g transform="matrix(1,0,0,1,427.891,407.61)"><path fill="#6b0338" d="M5.138,-12.3C5.138,-12.3,5.138,12.3,5.138,12.3C5.138,12.3,-5.138,-6.638,-5.138,-6.638C-5.138,-6.638,0.031,-6.638,5.138,-12.3Z" /></g><g transform="matrix(1,0,0,1,399.671,397.17)"><path fill="#fe6c45" d="M20.283,-53.939C20.283,-53.939,7.929,-49.77,7.929,-49.77C7.929,-49.77,-38.947,-34.171,-38.947,-34.171C-38.947,-34.171,-65.947,-10.17,-65.947,-10.17C-65.947,-10.17,-85.329,54.1,-85.329,54.1C-85.329,54.1,-59.947,44.775,-59.947,44.775C-59.947,44.775,6.204,14.774,6.204,14.774C6.204,14.774,13.404,-22.26,13.404,-22.26C13.404,-22.26,33.357,-28.47,33.357,-28.47C33.357,-28.47,44.604,0.72,44.604,0.72C44.604,0.72,83.057,3.354,83.057,3.354C83.057,3.354,85.329,0.72,85.329,0.72C85.329,0.72,46.928,-44.97,46.928,-44.97C46.928,-44.97,21.477,-54.1,21.477,-54.1C21.477,-54.1,20.283,-53.939,20.283,-53.939Z" /></g><g transform="matrix(1,0,0,1,437.595,361.213)"><path fill="#ffa05c" d="M9.005,-9.013C9.005,-9.013,-16.447,-18.143,-16.447,-18.143C-16.447,-18.143,-17.642,-17.982,-17.642,-17.982C-17.642,-17.982,-29.995,-13.813,-29.995,-13.813C-29.995,-13.813,-31.827,-13.203,-31.827,-13.203C-31.827,-13.203,-19.391,-13.903,-19.391,-13.903C-19.391,-13.903,5.12,-4.268,5.12,-4.268C5.12,-4.268,31.828,18.143,31.828,18.143C31.828,18.143,9.005,-9.013,9.005,-9.013Z" /></g><g transform="matrix(1,0,0,1,338.187,407.446)"><path fill="#d86b35" d="M2.12,34.235C2.12,34.235,1.538,34.065,1.538,34.065C1.538,34.065,18.914,-27.832,24.187,-44.994C24.187,-44.994,22.538,-44.445,22.538,-44.445C22.538,-44.445,-4.462,-20.446,-4.462,-20.446C-4.462,-20.446,-24.187,44.994,-24.187,44.994C-24.187,44.994,1.538,34.499,1.538,34.499C1.538,34.499,2.12,34.235,2.12,34.235Z" /></g><g transform="matrix(1,0,0,1,430.657,413.655)"><path fill="#bc2979" d="M-2.371,-2.484C-2.371,-2.484,2.371,6.255,2.371,6.255C2.371,6.255,2.371,-5.017,2.371,-5.017C2.371,-5.017,-0.782,-6.255,-0.782,-6.255C-0.782,-6.255,-2.371,-2.484,-2.371,-2.484Z" /></g><g transform="matrix(1,0,0,1,350.584,450.255)"><path fill="#ecbd91" d="M-36.584,2.145C-36.584,2.145,7.141,8.745,7.141,8.745C7.141,8.745,36.585,5.137,36.585,5.137C36.585,5.137,-10.859,-8.745,-10.859,-8.745C-10.859,-8.745,-36.584,2.145,-36.584,2.145Z" /></g><g transform="matrix(1,0,0,1,422.277,374.895)"><path fill="#231f20" d="M10.277,-6.105C10.277,-6.105,-10.277,0,-10.277,0C-10.277,0,2.38,6.105,2.38,6.105C2.38,6.105,10.277,-6.105,10.277,-6.105Z" /></g></g><g><g transform="translate(189.421,202.521)"><g transform="scale(1,1)"><animateTransform repeatCount="indefinite" type="scale" attributeName="transform" dur="4.004s" begin="0s" calcMode="spline" values="1 1; 1 1; 1 0; 1 1; 1 1" keyTimes="0; 0.333333; 0.358333; 0.383333; 1" keySplines="0 0 1 1; 0 0 1 1; 0 0 1 1; 0 0 1 1" fill="freeze" /><g transform="translate(-405.802,-333.521)"><g transform="matrix(1,0,0,1,405.802,333.521)"><path fill="#231f20" d="M-4.056,-12.48C-4.056,-12.48,-9.803,-5.836,-9.803,-5.836C-9.803,-5.836,-2.18,12.48,-2.18,12.48C-2.18,12.48,6.618,5.419,6.618,5.419C6.618,5.419,9.803,5.939,9.803,5.939C9.803,5.939,1.643,-11.514,1.643,-11.514C1.643,-11.514,-4.056,-12.48,-4.056,-12.48Z" /></g><g transform="matrix(1,0,0,1,400.289,329.306)"><path fill="#ffffff" d="M1.575,-4.668C1.575,-4.668,-1.829,-0.09,-1.829,-0.09C-1.829,-0.09,1.829,4.668,1.829,4.668C1.829,4.668,1.575,-4.668,1.575,-4.668Z" /></g></g></g></g></g><g><g transform="translate(244.728,189.379)"><g transform="scale(0.8,0.8)"><animateTransform repeatCount="indefinite" type="scale" attributeName="transform" dur="4.004s" begin="0s" calcMode="spline" values="0.8 0.8; 0.8 0.8; 0.8 -0.2; 0.8 0.8; 0.8 0.8" keyTimes="0; 0.333333; 0.358333; 0.383333; 1" keySplines="0 0 1 1; 0 0 1 1; 0 0 1 1; 0 0 1 1" fill="freeze" /><g transform="translate(-405.802,-333.521)"><g transform="matrix(1,0,0,1,405.802,333.521)"><path fill="#231f20" d="M-4.056,-12.48C-4.056,-12.48,-9.803,-5.836,-9.803,-5.836C-9.803,-5.836,-2.18,12.48,-2.18,12.48C-2.18,12.48,6.618,5.419,6.618,5.419C6.618,5.419,9.803,5.939,9.803,5.939C9.803,5.939,1.643,-11.514,1.643,-11.514C1.643,-11.514,-4.056,-12.48,-4.056,-12.48Z" /></g><g transform="matrix(1,0,0,1,400.289,329.306)"><path fill="#ffffff" d="M1.575,-4.668C1.575,-4.668,-1.829,-0.09,-1.829,-0.09C-1.829,-0.09,1.829,4.668,1.829,4.668C1.829,4.668,1.575,-4.668,1.575,-4.668Z" /></g></g></g></g></g></g></g></g></g></g></svg>