<svg fill="none" height="100%" width="100%" viewBox="0 0 512 512" xmlns:xlink="http://www.w3.org/1999/xlink" xmlns="http://www.w3.org/2000/svg"><g transform="matrix(1,0,0,1,256,256)" opacity="0.5" id="i0"><g id="i1"><path d="M34.75,34.5C-60.75,30.5,-64,36.5,-64,36.5C-64,36.5,-97.75,40,-74,42.25C-74,42,-77,49.75,-53.5,48.5C-53.25,48.5,-48.75,48.5,-43.5,45.25C-39.627,45.332,-34.907,45.449,-29.547,45.582C-24.728,45.701,-19.391,45.833,-13.689,45.962C-7.803,46.095,-1.528,46.226,4.972,46.338C9.072,46.408,13.261,46.471,17.498,46.522C59.143,47.025,105.357,46.4,116.5,40.75C116.5,40.5,130.25,38.5,34.75,34.5Z" fill="#444444"><animate repeatCount="indefinite" attributeName="d" dur="0.717s" begin="0s" calcMode="spline" values="M34.75,34.5C-60.75,30.5,-64,36.5,-64,36.5C-64,36.5,-97.75,40,-74,42.25C-74,42,-77,49.75,-53.5,48.5C-53.25,48.5,-48.75,48.5,-43.5,45.25C-39.627,45.332,-34.907,45.449,-29.547,45.582C-24.728,45.701,-19.391,45.833,-13.689,45.962C-7.803,46.095,-1.528,46.226,4.972,46.338C9.072,46.408,13.261,46.471,17.498,46.522C59.143,47.025,105.357,46.4,116.5,40.75C116.5,40.5,130.25,38.5,34.75,34.5Z; M51.5,35.25C-44.008,31.455,-64,36.5,-64,36.5C-64,36.5,-97.75,40,-74,42.25C-74,42,-75.75,52.25,-52.25,51C-52,51,-44.25,50.5,-43.5,45.25C-38.792,45.349,-32.279,49.307,-25.492,50.17C-17,51.25,-13.5,47.5,-10.251,46.039C-5.519,43.911,0.387,46.761,5.998,46.855C9.366,46.912,12.791,46.463,16.25,46.507C58.215,47.037,105.246,46.456,116.5,40.75C116.5,40.5,127,38.25,51.5,35.25Z; M51.5,35.25C-44.008,31.455,-64,36.5,-64,36.5C-64,36.5,-97.75,40,-74,42.25C-74,42,-75.75,52.25,-52.25,51C-52,51,-44.25,50.5,-43.5,45.25C-38.792,45.349,-32.279,49.307,-25.492,50.17C-17,51.25,-13.5,47.5,-10.251,46.039C-5.519,43.911,-4.829,49.231,0.748,49.855C8.75,50.75,15,48,18.75,46.757C61,48.25,105.246,46.456,116.5,40.75C116.5,40.5,127,38.25,51.5,35.25Z; M51.5,35.25C-44.008,31.455,-64,36.5,-64,36.5C-64,36.5,-97.75,40,-74,42.25C-74,42,-75.75,52.25,-52.25,51C-52,51,-44.25,50.5,-43.5,45.25C-38.792,45.349,-32.279,49.307,-25.492,50.17C-17,51.25,-13.5,47.5,-10.251,46.039C-5.519,43.911,-4.829,49.231,0.748,49.855C8.75,50.75,15,48,18.75,46.757C61,48.25,105.246,46.456,116.5,40.75C116.5,40.5,127,38.25,51.5,35.25Z; M34.75,34.5C-60.75,30.5,-64,36.5,-64,36.5C-64,36.5,-97.75,40,-74,42.25C-74,42,-77,49.75,-53.5,48.5C-53.25,48.5,-48.75,48.5,-43.5,45.25C-39.627,45.332,-34.907,45.449,-29.547,45.582C-24.728,45.701,-19.391,45.833,-13.689,45.962C-7.803,46.095,-1.528,46.226,4.972,46.338C9.072,46.408,13.261,46.471,17.498,46.522C59.143,47.025,105.357,46.4,116.5,40.75C116.5,40.5,130.25,38.5,34.75,34.5Z" keyTimes="0; 0.255814; 0.534884; 0.581395; 1" keySplines="0 0 1 1; 0 0 1 1; 0 0 1 1; 0 0 1 1" fill="freeze" /></path></g></g><g transform="matrix(1,0,0,1,256,256)" id="i2"><g id="i1"><path d="M68.75,-1C68.75,-1,56.25,12.5,62.75,22C69.25,31.5,81,37,90,37.75C99,38.5,111,38.75,112.75,24.25C114.5,9.75,105,2,96.25,-1.5C87.5,-5,65.75,-11,59.5,-13.25C53.25,-15.5,42.5,-20,42.5,-20C42.5,-20,36,-27,35.25,-32C34.5,-37,32.625,-51.625,28.875,-57.125C25.125,-62.625,-7.5,-86,-33.5,-72.5C-59.5,-59,-68,-51.25,-68.5,-50.25C-68.75,-50.5,-98,-32.5,-74.5,22C-73.5,23.5,-67,38,-55,41C-43,44,-21,44,-5,34C-4.25,33.5,27,36,39.25,32.5C51.5,29,55.625,20.812,55.625,20.812C55.625,20.812,52.375,20.812,52.375,20.812C52.375,20.812,62.188,21.062,62.188,21.062" fill="#4a90e2"><animate repeatCount="indefinite" attributeName="d" dur="0.717s" begin="0s" calcMode="spline" values="M68.75,-1C68.75,-1,56.25,12.5,62.75,22C69.25,31.5,81,37,90,37.75C99,38.5,111,38.75,112.75,24.25C114.5,9.75,105,2,96.25,-1.5C87.5,-5,65.75,-11,59.5,-13.25C53.25,-15.5,42.5,-20,42.5,-20C42.5,-20,36,-27,35.25,-32C34.5,-37,32.625,-51.625,28.875,-57.125C25.125,-62.625,-7.5,-86,-33.5,-72.5C-59.5,-59,-68,-51.25,-68.5,-50.25C-68.75,-50.5,-98,-32.5,-74.5,22C-73.5,23.5,-67,38,-55,41C-43,44,-21,44,-5,34C-4.25,33.5,27,36,39.25,32.5C51.5,29,55.625,20.812,55.625,20.812C55.625,20.812,52.375,20.812,52.375,20.812C52.375,20.812,62.188,21.062,62.188,21.062; M68.511,-1.239C68.511,-1.239,54.456,11.663,61.315,22.837C67.388,32.602,80.761,39.152,89.761,39.902C98.761,40.652,108.728,40.065,110.478,25.565C112.228,11.065,105.12,4.272,96.37,0.772C87.62,-2.728,61.32,-13.464,55.315,-16.239C50.619,-18.25,44.533,-22.63,44.533,-22.63C44.533,-22.63,40.946,-28.195,39.12,-33.315C37.529,-38.023,33.22,-52.534,28.538,-57.049C19.946,-63.924,3,-73,-23.076,-62.848C-53,-48,-67.457,-42.033,-67.957,-41.033C-68.207,-41.283,-98,-32.5,-74.5,22C-73.5,23.5,-67,38,-55,41C-43,44,-18.13,41.37,-2.13,31.37C-1.38,30.87,27,36,39.25,32.5C51.5,29,55.266,20.932,55.266,20.932C55.266,20.932,52.375,20.812,52.375,20.812C52.375,20.812,60.035,20.823,60.035,20.823; M68.25,-1.5C68.25,-1.5,52.5,10.75,59.75,23.75C65.357,33.803,80.5,41.5,89.5,42.25C98.5,43,106.25,41.5,108,27C109.75,12.5,105.25,6.75,96.5,3.25C87.75,-0.25,56.488,-16.153,50.75,-19.5C47.75,-21.25,46.75,-25.5,46.75,-25.5C46.75,-25.5,44.25,-29.5,41.25,-34.75C38.742,-39.14,32.824,-51.435,27.125,-54.875C13.25,-63.25,-2.162,-67.256,-24.25,-56.5C-53,-42.5,-69.5,-33.75,-70,-32.75C-70.25,-33,-93,-22.5,-74.5,22C-73.5,23.5,-67,38,-55,41C-43,44,-15,38.5,1,28.5C1.75,28,27,36,39.25,32.5C51.5,29,54.875,21.062,54.875,21.062C54.875,21.062,52.375,20.812,52.375,20.812C52.375,20.812,57.688,20.562,57.688,20.562; M68.25,-1.5C68.25,-1.5,52.5,10.75,59.75,23.75C65.357,33.803,80.5,41.5,89.5,42.25C98.5,43,106.25,41.5,108,27C109.75,12.5,105.25,6.75,96.5,3.25C87.75,-0.25,56.488,-16.153,50.75,-19.5C47.75,-21.25,46.75,-25.5,46.75,-25.5C46.75,-25.5,44.25,-29.5,41.25,-34.75C38.742,-39.14,32.824,-51.435,27.125,-54.875C13.25,-63.25,-2.162,-67.256,-24.25,-56.5C-53,-42.5,-69.5,-33.75,-70,-32.75C-70.25,-33,-93,-22.5,-74.5,22C-73.5,23.5,-67,38,-55,41C-43,44,-15,38.5,1,28.5C1.75,28,27,36,39.25,32.5C51.5,29,54.875,21.062,54.875,21.062C54.875,21.062,52.375,20.812,52.375,20.812C52.375,20.812,57.688,20.562,57.688,20.562; M68.75,-1C68.75,-1,56.25,12.5,62.75,22C69.25,31.5,81,37,90,37.75C99,38.5,111,38.75,112.75,24.25C114.5,9.75,105,2,96.25,-1.5C87.5,-5,65.75,-11,59.5,-13.25C53.25,-15.5,42.5,-20,42.5,-20C42.5,-20,36,-27,35.25,-32C34.5,-37,32.625,-51.625,28.875,-57.125C25.125,-62.625,-7.5,-86,-33.5,-72.5C-59.5,-59,-68,-51.25,-68.5,-50.25C-68.75,-50.5,-98,-32.5,-74.5,22C-73.5,23.5,-67,38,-55,41C-43,44,-21,44,-5,34C-4.25,33.5,27,36,39.25,32.5C51.5,29,55.625,20.812,55.625,20.812C55.625,20.812,52.375,20.812,52.375,20.812C52.375,20.812,62.188,21.062,62.188,21.062" keyTimes="0; 0.255814; 0.534884; 0.581395; 1" keySplines="0 0 1 1; 0 0 1 1; 0 0 1 1; 0 0 1 1" fill="freeze" /></path></g><g id="i3"><path d="M-33.5,-72.5C-59.5,-59,-59.75,-57.75,-60.25,-56.75C-60.467,-56.967,-82.609,-43.388,-72.938,-4.015C-72.216,-1.076,-35.467,-18.261,-35.467,-18.261C-35.467,-18.261,-67.792,11.924,-66.25,15.5C-65.25,17,-58.75,31.5,-46.75,34.5C-34.75,37.5,-12.5,38,3.5,28C4.25,27.5,35.422,29.716,47.75,26.5C53.5,25,55.625,20.812,55.625,20.812C55.625,20.812,59.125,21.124,61.125,20.812C59.625,9.25,67.062,0.562,67.062,0.562C67.062,0.562,69.25,-1.5,69.25,-1.5C69.25,-1.5,94.875,0.125,102.5,16C109.158,29.861,96.5,38.75,99.5,38.25C103.878,37.52,112.375,33.375,112.75,24.25C113.35,9.657,105,2,96.25,-1.5C87.5,-5,65.75,-11,59.5,-13.25C53.25,-15.5,42.5,-20,42.5,-20C42.5,-20,36,-27,35.25,-32C34.5,-37,32.625,-51.625,28.875,-57.125C25.125,-62.625,-7.5,-86,-33.5,-72.5Z" fill="#0d76f1"><animate repeatCount="indefinite" attributeName="d" dur="0.717s" begin="0s" calcMode="spline" values="M-33.5,-72.5C-59.5,-59,-59.75,-57.75,-60.25,-56.75C-60.467,-56.967,-82.609,-43.388,-72.938,-4.015C-72.216,-1.076,-35.467,-18.261,-35.467,-18.261C-35.467,-18.261,-67.792,11.924,-66.25,15.5C-65.25,17,-58.75,31.5,-46.75,34.5C-34.75,37.5,-12.5,38,3.5,28C4.25,27.5,35.422,29.716,47.75,26.5C53.5,25,55.625,20.812,55.625,20.812C55.625,20.812,59.125,21.124,61.125,20.812C59.625,9.25,67.062,0.562,67.062,0.562C67.062,0.562,69.25,-1.5,69.25,-1.5C69.25,-1.5,94.875,0.125,102.5,16C109.158,29.861,96.5,38.75,99.5,38.25C103.878,37.52,112.375,33.375,112.75,24.25C113.35,9.657,105,2,96.25,-1.5C87.5,-5,65.75,-11,59.5,-13.25C53.25,-15.5,42.5,-20,42.5,-20C42.5,-20,36,-27,35.25,-32C34.5,-37,32.625,-51.625,28.875,-57.125C25.125,-62.625,-7.5,-86,-33.5,-72.5Z; M-29.25,-60.25C-61.068,-45.111,-64.125,-43.875,-71.375,-37.625C-74.375,-32.375,-75.75,-20.5,-72.938,-4.015C-72.437,-1.03,-35.467,-18.261,-35.467,-18.261C-35.467,-18.261,-67.792,11.924,-66.25,15.5C-65.25,17,-58.75,31.5,-46.75,34.5C-34.75,37.5,-8.25,34.25,7.75,24.25C8.5,23.75,28.5,28.75,42.5,27C48.397,26.263,52.125,20.312,52.125,20.312C52.125,20.312,57.125,20.124,59.125,19.812C56.75,7.5,67.062,0.562,67.062,0.562C67.062,0.562,69.25,-1.5,69.25,-1.5C69.25,-1.5,91.625,-0.625,99.25,15.25C105.908,29.111,95.5,41,98.5,40.5C102.878,39.77,109.875,35.625,110.25,26.5C110.85,11.907,106.5,6.25,97.75,2.75C89,-0.75,68,-10.5,61.75,-12.75C55.5,-15,47.25,-20.25,47.25,-20.25C47.25,-20.25,41.25,-29,38.75,-35C36.805,-39.667,32.625,-51.625,28.875,-57.125C25.125,-62.625,1.75,-75,-29.25,-60.25Z; M-22.75,-57.25C-53.915,-40.809,-58.75,-36,-64,-28.75C-67,-23.5,-68.75,-12,-65.938,4.485C-65.437,7.47,-28.467,-9.761,-28.467,-9.761C-28.467,-9.761,-60.792,20.424,-59.25,24C-58.25,25.5,-58.75,31.5,-46.75,34.5C-34.75,37.5,-8.25,34.25,7.75,24.25C8.5,23.75,28.5,28.75,42.5,27C48.397,26.263,52.125,20.312,52.125,20.312C52.125,20.312,57.125,20.124,59.125,19.812C56.75,7.5,67.062,0.562,67.062,0.562C67.062,0.562,69.25,-1.5,69.25,-1.5C69.25,-1.5,93.271,7.828,96.25,15C103,31.25,95.536,41.184,98.5,40.5C105,39,108.125,32.375,108.5,23.25C109.1,8.657,97,2.25,88.25,-1.25C79.5,-4.75,65.125,-11.375,58.75,-15.125C53.024,-18.493,51.75,-18.625,51.75,-18.625C51.75,-18.625,48.125,-22.375,45.75,-26.5C43.227,-30.882,37.875,-41.875,34.125,-47.375C30.375,-52.875,9,-74,-22.75,-57.25Z; M-22.75,-57.25C-53.915,-40.809,-58.75,-36,-64,-28.75C-67,-23.5,-68.75,-12,-65.938,4.485C-65.437,7.47,-28.467,-9.761,-28.467,-9.761C-28.467,-9.761,-60.792,20.424,-59.25,24C-58.25,25.5,-58.75,31.5,-46.75,34.5C-34.75,37.5,-8.25,34.25,7.75,24.25C8.5,23.75,28.5,28.75,42.5,27C48.397,26.263,52.125,20.312,52.125,20.312C52.125,20.312,57.125,20.124,59.125,19.812C56.75,7.5,67.062,0.562,67.062,0.562C67.062,0.562,69.25,-1.5,69.25,-1.5C69.25,-1.5,93.271,7.828,96.25,15C103,31.25,95.536,41.184,98.5,40.5C105,39,108.125,32.375,108.5,23.25C109.1,8.657,97,2.25,88.25,-1.25C79.5,-4.75,65.125,-11.375,58.75,-15.125C53.024,-18.493,51.75,-18.625,51.75,-18.625C51.75,-18.625,48.125,-22.375,45.75,-26.5C43.227,-30.882,37.875,-41.875,34.125,-47.375C30.375,-52.875,9,-74,-22.75,-57.25Z; M-33.5,-72.5C-59.5,-59,-58.5,-58.5,-59,-57.5C-59.217,-57.717,-98,-35.75,-72.938,-4.015C-71.062,-1.64,-35.467,-18.261,-35.467,-18.261C-35.467,-18.261,-67.792,11.924,-66.25,15.5C-65.25,17,-58.75,31.5,-46.75,34.5C-34.75,37.5,-12.5,38,3.5,28C4.25,27.5,35.422,29.716,47.75,26.5C53.5,25,55.625,20.812,55.625,20.812C55.625,20.812,59.125,21.124,61.125,20.812C59.625,9.25,67.062,0.562,67.062,0.562C67.062,0.562,69.25,-1.5,69.25,-1.5C69.25,-1.5,94.875,0.125,102.5,16C109.158,29.861,96.5,38.75,99.5,38.25C103.878,37.52,112.375,33.375,112.75,24.25C113.35,9.657,105,2,96.25,-1.5C87.5,-5,65.75,-11,59.5,-13.25C53.25,-15.5,42.5,-20,42.5,-20C42.5,-20,36,-27,35.25,-32C34.5,-37,32.625,-51.625,28.875,-57.125C25.125,-62.625,-7.5,-86,-33.5,-72.5Z" keyTimes="0; 0.255814; 0.534884; 0.581395; 1" keySplines="0 0 1 1; 0 0 1 1; 0 0 1 1; 0 0 1 1" fill="freeze" /></path></g><g id="i4"><path d="M68.75,-1C68.75,-1,56.25,12.5,62.75,22C69.25,31.5,81,37,90,37.75C99,38.5,111,38.75,112.75,24.25C114.5,9.75,105,2,96.25,-1.5C87.5,-5,65.75,-11,59.5,-13.25C53.25,-15.5,42.5,-20,42.5,-20C42.5,-20,36,-27,35.25,-32C34.5,-37,32.625,-51.625,28.875,-57.125C25.125,-62.625,-7.5,-86,-33.5,-72.5C-59.5,-59,-68,-51.25,-68.5,-50.25C-68.75,-50.5,-98,-32.5,-74.5,22C-73.5,23.5,-67,38,-55,41C-43,44,-21,44,-5,34C-4.25,33.5,27,36,39.25,32.5C51.5,29,55.625,20.812,55.625,20.812C55.625,20.812,52.375,20.812,52.375,20.812C52.375,20.812,62.188,21.062,62.188,21.062" stroke-linejoin="round" stroke-linecap="round" stroke-width="2" stroke="#6b0074"><animate repeatCount="indefinite" attributeName="d" dur="0.717s" begin="0s" calcMode="spline" values="M68.75,-1C68.75,-1,56.25,12.5,62.75,22C69.25,31.5,81,37,90,37.75C99,38.5,111,38.75,112.75,24.25C114.5,9.75,105,2,96.25,-1.5C87.5,-5,65.75,-11,59.5,-13.25C53.25,-15.5,42.5,-20,42.5,-20C42.5,-20,36,-27,35.25,-32C34.5,-37,32.625,-51.625,28.875,-57.125C25.125,-62.625,-7.5,-86,-33.5,-72.5C-59.5,-59,-68,-51.25,-68.5,-50.25C-68.75,-50.5,-98,-32.5,-74.5,22C-73.5,23.5,-67,38,-55,41C-43,44,-21,44,-5,34C-4.25,33.5,27,36,39.25,32.5C51.5,29,55.625,20.812,55.625,20.812C55.625,20.812,52.375,20.812,52.375,20.812C52.375,20.812,62.188,21.062,62.188,21.062; M68.511,-1.239C68.511,-1.239,54.456,11.663,61.315,22.837C67.388,32.602,80.761,39.152,89.761,39.902C98.761,40.652,108.728,40.065,110.478,25.565C112.228,11.065,105.12,4.272,96.37,0.772C87.62,-2.728,61.32,-13.464,55.315,-16.239C50.619,-18.25,44.533,-22.63,44.533,-22.63C44.533,-22.63,40.946,-28.195,39.12,-33.315C37.529,-38.023,33.22,-52.534,28.538,-57.049C19.946,-63.924,3,-73,-23.076,-62.848C-53,-48,-67.457,-42.033,-67.957,-41.033C-68.207,-41.283,-98,-32.5,-74.5,22C-73.5,23.5,-67,38,-55,41C-43,44,-18.13,41.37,-2.13,31.37C-1.38,30.87,27,36,39.25,32.5C51.5,29,55.266,20.932,55.266,20.932C55.266,20.932,52.375,20.812,52.375,20.812C52.375,20.812,60.035,20.823,60.035,20.823; M68.25,-1.5C68.25,-1.5,52.5,10.75,59.75,23.75C65.357,33.803,80.5,41.5,89.5,42.25C98.5,43,106.25,41.5,108,27C109.75,12.5,105.25,6.75,96.5,3.25C87.75,-0.25,56.488,-16.153,50.75,-19.5C47.75,-21.25,46.75,-25.5,46.75,-25.5C46.75,-25.5,44.25,-29.5,41.25,-34.75C38.742,-39.14,32.824,-51.435,27.125,-54.875C13.25,-63.25,-2.162,-67.256,-24.25,-56.5C-53,-42.5,-69.5,-33.75,-70,-32.75C-70.25,-33,-93,-22.5,-74.5,22C-73.5,23.5,-67,38,-55,41C-43,44,-15,38.5,1,28.5C1.75,28,27,36,39.25,32.5C51.5,29,54.875,21.062,54.875,21.062C54.875,21.062,52.375,20.812,52.375,20.812C52.375,20.812,57.688,20.562,57.688,20.562; M68.25,-1.5C68.25,-1.5,52.5,10.75,59.75,23.75C65.357,33.803,80.5,41.5,89.5,42.25C98.5,43,106.25,41.5,108,27C109.75,12.5,105.25,6.75,96.5,3.25C87.75,-0.25,56.488,-16.153,50.75,-19.5C47.75,-21.25,46.75,-25.5,46.75,-25.5C46.75,-25.5,44.25,-29.5,41.25,-34.75C38.742,-39.14,32.824,-51.435,27.125,-54.875C13.25,-63.25,-2.162,-67.256,-24.25,-56.5C-53,-42.5,-69.5,-33.75,-70,-32.75C-70.25,-33,-93,-22.5,-74.5,22C-73.5,23.5,-67,38,-55,41C-43,44,-15,38.5,1,28.5C1.75,28,27,36,39.25,32.5C51.5,29,54.875,21.062,54.875,21.062C54.875,21.062,52.375,20.812,52.375,20.812C52.375,20.812,57.688,20.562,57.688,20.562; M68.75,-1C68.75,-1,56.25,12.5,62.75,22C69.25,31.5,81,37,90,37.75C99,38.5,111,38.75,112.75,24.25C114.5,9.75,105,2,96.25,-1.5C87.5,-5,65.75,-11,59.5,-13.25C53.25,-15.5,42.5,-20,42.5,-20C42.5,-20,36,-27,35.25,-32C34.5,-37,32.625,-51.625,28.875,-57.125C25.125,-62.625,-7.5,-86,-33.5,-72.5C-59.5,-59,-68,-51.25,-68.5,-50.25C-68.75,-50.5,-98,-32.5,-74.5,22C-73.5,23.5,-67,38,-55,41C-43,44,-21,44,-5,34C-4.25,33.5,27,36,39.25,32.5C51.5,29,55.625,20.812,55.625,20.812C55.625,20.812,52.375,20.812,52.375,20.812C52.375,20.812,62.188,21.062,62.188,21.062" keyTimes="0; 0.255814; 0.534884; 0.581395; 1" keySplines="0 0 1 1; 0 0 1 1; 0 0 1 1; 0 0 1 1" fill="freeze" /></path></g></g><g transform="matrix(1,0,0,1,256,256)" id="i5"><g id="i1"><path d="M-67.375,-49.125C-67.375,-49.125,-78,-59,-86.75,-54.75C-95.5,-50.5,-96.5,-47.25,-98.25,-44.5C-100,-41.75,-101,-32,-99.25,-25C-97.5,-18,-88.939,2.756,-83.5,9.5C-79.236,14.788,-68.687,19.028,-62.097,14.598C-59.028,12.535,-56.818,8.593,-56.5,2C-56.5,1.5,-62.25,-19.75,-66.75,-32.5" fill="#4a90e2"><animate repeatCount="indefinite" attributeName="d" dur="0.717s" begin="0s" calcMode="spline" values="M-67.375,-49.125C-67.375,-49.125,-78,-59,-86.75,-54.75C-95.5,-50.5,-96.5,-47.25,-98.25,-44.5C-100,-41.75,-101,-32,-99.25,-25C-97.5,-18,-88.939,2.756,-83.5,9.5C-79.236,14.788,-68.687,19.028,-62.097,14.598C-59.028,12.535,-56.818,8.593,-56.5,2C-56.5,1.5,-62.25,-19.75,-66.75,-32.5; M-70.375,-33.875C-70.375,-33.875,-77.704,-40.64,-85.5,-37.25C-94.125,-33.5,-95,-29.75,-96.75,-27C-98.5,-24.25,-99.1,-14.588,-97.75,-7.5C-94.75,8.25,-89,16.75,-86.75,21.75C-79.985,36.783,-70.5,51.125,-56.328,49.583C-51.637,49.073,-47.5,42.125,-48.875,31.5C-48.875,31,-49.5,17,-63.75,-12.75; M-70.375,-33.875C-70.375,-33.875,-77.704,-40.64,-85.5,-37.25C-94.125,-33.5,-95,-29.75,-96.75,-27C-98.5,-24.25,-99.1,-14.588,-97.75,-7.5C-94.75,8.25,-89,16.75,-86.75,21.75C-79.985,36.783,-70.5,51.125,-56.328,49.583C-51.637,49.073,-47.5,42.125,-48.875,31.5C-48.875,31,-49.5,17,-63.75,-12.75; M-67.375,-49.125C-67.375,-49.125,-78,-59,-86.75,-54.75C-95.5,-50.5,-96.5,-47.25,-98.25,-44.5C-100,-41.75,-101,-32,-99.25,-25C-97.5,-18,-88.939,2.756,-83.5,9.5C-79.236,14.788,-68.687,19.028,-62.097,14.598C-59.028,12.535,-56.818,8.593,-56.5,2C-56.5,1.5,-62.25,-19.75,-66.75,-32.5" keyTimes="0; 0.255814; 0.581395; 1" keySplines="0 0 1 1; 0 0 1 1; 0 0 1 1" fill="freeze" /></path></g><g id="i3"><path d="M-66.375,-48.625C-66.375,-48.625,-71.25,-52,-75.25,-53.5C-78.761,-54.817,-81,-49.25,-82.75,-46.5C-84.5,-43.75,-85.5,-33.75,-83.75,-26.75C-82,-19.75,-71.564,0.631,-66.125,7.375C-61.861,12.663,-58.5,14,-57.472,10.348C-56.346,6.346,-56.347,3.339,-57.125,-1.625C-58.957,-13.32,-62.819,-28.19,-65.625,-35.625" fill="#0d76f1"><animate repeatCount="indefinite" attributeName="d" dur="0.717s" begin="0s" calcMode="spline" values="M-66.375,-48.625C-66.375,-48.625,-71.25,-52,-75.25,-53.5C-78.761,-54.817,-81,-49.25,-82.75,-46.5C-84.5,-43.75,-85.5,-33.75,-83.75,-26.75C-82,-19.75,-71.564,0.631,-66.125,7.375C-61.861,12.663,-58.5,14,-57.472,10.348C-56.346,6.346,-56.347,3.339,-57.125,-1.625C-58.957,-13.32,-62.819,-28.19,-65.625,-35.625; M-66.375,-30.125C-66.375,-30.125,-69.5,-33.5,-73.5,-35C-77.011,-36.317,-79.25,-30.75,-81,-28C-82.75,-25.25,-83.75,-15.25,-82,-8.25C-80.25,-1.25,-64.314,34.131,-58.875,40.875C-54.611,46.163,-51.25,47.5,-50.222,43.848C-49.096,39.846,-49.097,36.839,-49.875,31.875C-51.707,20.18,-62.819,-9.69,-65.625,-17.125; M-66.375,-30.125C-66.375,-30.125,-69.5,-33.5,-73.5,-35C-77.011,-36.317,-79.25,-30.75,-81,-28C-82.75,-25.25,-83.75,-15.25,-82,-8.25C-80.25,-1.25,-64.314,34.131,-58.875,40.875C-54.611,46.163,-51.25,47.5,-50.222,43.848C-49.096,39.846,-49.097,36.839,-49.875,31.875C-51.707,20.18,-62.819,-9.69,-65.625,-17.125; M-66.375,-48.625C-66.375,-48.625,-71.25,-52,-75.25,-53.5C-78.761,-54.817,-81,-49.25,-82.75,-46.5C-84.5,-43.75,-85.5,-33.75,-83.75,-26.75C-82,-19.75,-71.564,0.631,-66.125,7.375C-61.861,12.663,-58.5,14,-57.472,10.348C-56.346,6.346,-56.347,3.339,-57.125,-1.625C-58.957,-13.32,-62.819,-28.19,-65.625,-35.625" keyTimes="0; 0.255814; 0.581395; 1" keySplines="0 0 1 1; 0 0 1 1; 0 0 1 1" fill="freeze" /></path></g><g id="i4"><path d="M-67.375,-49.125C-67.375,-49.125,-78,-59,-86.75,-54.75C-95.5,-50.5,-96.5,-47.25,-98.25,-44.5C-100,-41.75,-101,-32,-99.25,-25C-97.5,-18,-88.939,2.756,-83.5,9.5C-79.236,14.788,-68.687,19.028,-62.097,14.598C-59.028,12.535,-56.818,8.593,-56.5,2C-56.5,1.5,-62.25,-19.75,-66.75,-32.5" stroke-width="2" stroke="#6b0074"><animate repeatCount="indefinite" attributeName="d" dur="0.717s" begin="0s" calcMode="spline" values="M-67.375,-49.125C-67.375,-49.125,-78,-59,-86.75,-54.75C-95.5,-50.5,-96.5,-47.25,-98.25,-44.5C-100,-41.75,-101,-32,-99.25,-25C-97.5,-18,-88.939,2.756,-83.5,9.5C-79.236,14.788,-68.687,19.028,-62.097,14.598C-59.028,12.535,-56.818,8.593,-56.5,2C-56.5,1.5,-62.25,-19.75,-66.75,-32.5; M-70.375,-33.875C-70.375,-33.875,-77.704,-40.64,-85.5,-37.25C-94.125,-33.5,-95,-29.75,-96.75,-27C-98.5,-24.25,-99.1,-14.588,-97.75,-7.5C-94.75,8.25,-89,16.75,-86.75,21.75C-79.985,36.783,-70.5,51.125,-56.328,49.583C-51.637,49.073,-47.5,42.125,-48.875,31.5C-48.875,31,-49.5,17,-63.75,-12.75; M-70.375,-33.875C-70.375,-33.875,-77.704,-40.64,-85.5,-37.25C-94.125,-33.5,-95,-29.75,-96.75,-27C-98.5,-24.25,-99.1,-14.588,-97.75,-7.5C-94.75,8.25,-89,16.75,-86.75,21.75C-79.985,36.783,-70.5,51.125,-56.328,49.583C-51.637,49.073,-47.5,42.125,-48.875,31.5C-48.875,31,-49.5,17,-63.75,-12.75; M-67.375,-49.125C-67.375,-49.125,-78,-59,-86.75,-54.75C-95.5,-50.5,-96.5,-47.25,-98.25,-44.5C-100,-41.75,-101,-32,-99.25,-25C-97.5,-18,-88.939,2.756,-83.5,9.5C-79.236,14.788,-68.687,19.028,-62.097,14.598C-59.028,12.535,-56.818,8.593,-56.5,2C-56.5,1.5,-62.25,-19.75,-66.75,-32.5" keyTimes="0; 0.255814; 0.581395; 1" keySplines="0 0 1 1; 0 0 1 1; 0 0 1 1" fill="freeze" /></path></g></g><g transform="matrix(1,0,0,1,256,256)" id="i6"><g id="i1"><path d="M-55.5,-105C-65.5,-106,-75.108,-98.492,-75.5,-93C-76,-86,-75,-82.75,-71.5,-73.5C-65.372,-57.305,-57.75,-31.25,-50,-28.5C-42.25,-25.75,-22.114,-28.588,-26.75,-48C-30.75,-64.75,-38.75,-83.5,-39.75,-87C-40.75,-90.5,-45.5,-104,-55.5,-105Z" fill="#4a90e2"><animate repeatCount="indefinite" attributeName="d" dur="0.717s" begin="0s" calcMode="spline" values="M-55.5,-105C-65.5,-106,-75.108,-98.492,-75.5,-93C-76,-86,-75,-82.75,-71.5,-73.5C-65.372,-57.305,-57.75,-31.25,-50,-28.5C-42.25,-25.75,-22.114,-28.588,-26.75,-48C-30.75,-64.75,-38.75,-83.5,-39.75,-87C-40.75,-90.5,-45.5,-104,-55.5,-105Z; M-51.579,-63.91C-62.76,-65,-73.502,-56.813,-73.941,-50.826C-74.5,-43.194,-73.382,-39.651,-69.469,-29.566C-62.618,-11.91,-46.75,39.25,-34.429,44.746C-24.735,49.07,-6.5,43.5,-12.683,21.736C-17.821,3.65,-32.851,-40.469,-33.969,-44.285C-35.087,-48.101,-40.398,-62.82,-51.579,-63.91Z; M-51.579,-63.91C-62.76,-65,-73.502,-56.813,-73.941,-50.826C-74.5,-43.194,-73.382,-39.651,-69.469,-29.566C-62.618,-11.91,-46.75,39.25,-34.429,44.746C-24.735,49.07,-6.5,43.5,-12.683,21.736C-17.821,3.65,-32.851,-40.469,-33.969,-44.285C-35.087,-48.101,-40.398,-62.82,-51.579,-63.91Z; M-55.5,-105C-65.5,-106,-75.108,-98.492,-75.5,-93C-76,-86,-75,-82.75,-71.5,-73.5C-65.372,-57.305,-57.75,-31.25,-50,-28.5C-42.25,-25.75,-22.114,-28.588,-26.75,-48C-30.75,-64.75,-38.75,-83.5,-39.75,-87C-40.75,-90.5,-45.5,-104,-55.5,-105Z; M-55.5,-105C-65.5,-106,-75.108,-98.492,-75.5,-93C-76,-86,-75,-82.75,-71.5,-73.5C-65.372,-57.305,-57.75,-31.25,-50,-28.5C-42.25,-25.75,-22.114,-28.588,-26.75,-48C-30.75,-64.75,-38.75,-83.5,-39.75,-87C-40.75,-90.5,-45.5,-104,-55.5,-105Z" keyTimes="0; 0.255814; 0.581395; 0.837209; 1" keySplines="0 0 1 1; 0 0 1 1; 0 0 1 1; 0 0 1 1" fill="freeze" /></path></g><g id="i3"><path d="M-55.5,-105C-60.5,-105.125,-66.875,-104.375,-63.375,-102.125C-53.302,-95.649,-50.5,-84.75,-47,-75.5C-40.872,-59.305,-33.5,-37.25,-39.25,-28.625C-40.996,-26.006,-22.75,-33.125,-26.75,-48C-31.222,-64.63,-38.75,-83.5,-39.75,-87C-40.75,-90.5,-45.453,-104.749,-55.5,-105Z" fill="#0d76f1"><animate repeatCount="indefinite" attributeName="d" dur="0.717s" begin="0s" calcMode="spline" values="M-55.5,-105C-60.5,-105.125,-66.875,-104.375,-63.375,-102.125C-53.302,-95.649,-50.5,-84.75,-47,-75.5C-40.872,-59.305,-33.5,-37.25,-39.25,-28.625C-40.996,-26.006,-22.75,-33.125,-26.75,-48C-31.222,-64.63,-38.75,-83.5,-39.75,-87C-40.75,-90.5,-45.453,-104.749,-55.5,-105Z; M-52.5,-63.75C-57.5,-63.875,-64.186,-62.545,-60.375,-60.875C-49.25,-56,-47.77,-49.046,-43.25,-40.25C-34,-22.25,-17,35,-22.75,43.625C-24.496,46.244,-9.881,39.878,-11.5,30.25C-16.25,2,-35,-48.25,-36,-51.75C-37,-55.25,-42.453,-63.499,-52.5,-63.75Z; M-52.5,-63.75C-57.5,-63.875,-64.186,-62.545,-60.375,-60.875C-49.25,-56,-47.77,-49.046,-43.25,-40.25C-34,-22.25,-17,35,-22.75,43.625C-24.496,46.244,-9.881,39.878,-11.5,30.25C-16.25,2,-35,-48.25,-36,-51.75C-37,-55.25,-42.453,-63.499,-52.5,-63.75Z; M-55.5,-105C-60.5,-105.125,-66.875,-104.375,-63.375,-102.125C-53.302,-95.649,-50.5,-84.75,-47,-75.5C-40.872,-59.305,-33.5,-37.25,-39.25,-28.625C-40.996,-26.006,-22.75,-33.125,-26.75,-48C-31.222,-64.63,-38.75,-83.5,-39.75,-87C-40.75,-90.5,-45.453,-104.749,-55.5,-105Z; M-55.5,-105C-60.5,-105.125,-66.875,-104.375,-63.375,-102.125C-53.302,-95.649,-50.5,-84.75,-47,-75.5C-40.872,-59.305,-33.5,-37.25,-39.25,-28.625C-40.996,-26.006,-22.75,-33.125,-26.75,-48C-31.222,-64.63,-38.75,-83.5,-39.75,-87C-40.75,-90.5,-45.453,-104.749,-55.5,-105Z" keyTimes="0; 0.255814; 0.581395; 0.837209; 1" keySplines="0 0 1 1; 0 0 1 1; 0 0 1 1; 0 0 1 1" fill="freeze" /></path></g><g id="i4"><path d="M-55.5,-105C-65.5,-106,-75.108,-98.492,-75.5,-93C-76,-86,-75,-82.75,-71.5,-73.5C-65.372,-57.305,-57.75,-31.25,-50,-28.5C-42.25,-25.75,-22.114,-28.588,-26.75,-48C-30.75,-64.75,-38.75,-83.5,-39.75,-87C-40.75,-90.5,-45.5,-104,-55.5,-105Z" stroke-width="2" stroke="#6b0074"><animate repeatCount="indefinite" attributeName="d" dur="0.717s" begin="0s" calcMode="spline" values="M-55.5,-105C-65.5,-106,-75.108,-98.492,-75.5,-93C-76,-86,-75,-82.75,-71.5,-73.5C-65.372,-57.305,-57.75,-31.25,-50,-28.5C-42.25,-25.75,-22.114,-28.588,-26.75,-48C-30.75,-64.75,-38.75,-83.5,-39.75,-87C-40.75,-90.5,-45.5,-104,-55.5,-105Z; M-51.579,-63.91C-62.76,-65,-73.502,-56.813,-73.941,-50.826C-74.5,-43.194,-73.382,-39.651,-69.469,-29.566C-62.618,-11.91,-46.75,39.25,-34.429,44.746C-24.735,49.07,-6.5,43.5,-12.683,21.736C-17.821,3.65,-32.851,-40.469,-33.969,-44.285C-35.087,-48.101,-40.398,-62.82,-51.579,-63.91Z; M-51.579,-63.91C-62.76,-65,-73.502,-56.813,-73.941,-50.826C-74.5,-43.194,-73.382,-39.651,-69.469,-29.566C-62.618,-11.91,-46.75,39.25,-34.429,44.746C-24.735,49.07,-6.5,43.5,-12.683,21.736C-17.821,3.65,-32.851,-40.469,-33.969,-44.285C-35.087,-48.101,-40.398,-62.82,-51.579,-63.91Z; M-55.5,-105C-65.5,-106,-75.108,-98.492,-75.5,-93C-76,-86,-75,-82.75,-71.5,-73.5C-65.372,-57.305,-57.75,-31.25,-50,-28.5C-42.25,-25.75,-22.114,-28.588,-26.75,-48C-30.75,-64.75,-38.75,-83.5,-39.75,-87C-40.75,-90.5,-45.5,-104,-55.5,-105Z; M-55.5,-105C-65.5,-106,-75.108,-98.492,-75.5,-93C-76,-86,-75,-82.75,-71.5,-73.5C-65.372,-57.305,-57.75,-31.25,-50,-28.5C-42.25,-25.75,-22.114,-28.588,-26.75,-48C-30.75,-64.75,-38.75,-83.5,-39.75,-87C-40.75,-90.5,-45.5,-104,-55.5,-105Z" keyTimes="0; 0.255814; 0.581395; 0.837209; 1" keySplines="0 0 1 1; 0 0 1 1; 0 0 1 1; 0 0 1 1" fill="freeze" /></path></g></g><g transform="matrix(1,0,0,1,256,256)" id="i7"><g id="i1" transform="matrix(1,0,0,1,-0.916,-1.008)"><path d="M-24.5,-140.75C-31.75,-139.5,-36,-130.75,-36,-130.75C-36,-130.75,-37.25,-128.25,-35.5,-117.5C-33.75,-106.75,-29.25,-78.75,-28,-74.5C-26.75,-70.25,-23.75,-61.5,-15,-61C-6.25,-60.5,6.5,-62.25,5.5,-75.25C4.5,-88.25,-2.25,-127.25,-5.25,-132.25C-8.25,-137.25,-15.125,-142.366,-24.5,-140.75Z" fill="#4a90e2"><animate repeatCount="indefinite" attributeName="d" dur="0.717s" begin="0s" calcMode="spline" values="M-24.5,-140.75C-31.75,-139.5,-36,-130.75,-36,-130.75C-36,-130.75,-37.25,-128.25,-35.5,-117.5C-33.75,-106.75,-29.25,-78.75,-28,-74.5C-26.75,-70.25,-23.75,-61.5,-15,-61C-6.25,-60.5,6.5,-62.25,5.5,-75.25C4.5,-88.25,-2.25,-127.25,-5.25,-132.25C-8.25,-137.25,-15.125,-142.366,-24.5,-140.75Z; M-23.25,-115.75C-30.5,-114.5,-34.75,-105.75,-34.75,-105.75C-34.75,-105.75,-36,-103.25,-34.25,-92.5C-32.5,-81.75,-21.75,-38.75,-20.5,-34.5C-19.25,-30.25,-16.25,-21.5,-7.5,-21C1.25,-20.5,14,-22.25,13,-35.25C12,-48.25,-1,-102.25,-4,-107.25C-7,-112.25,-13.875,-117.366,-23.25,-115.75Z; M-19.572,-73.033C-33.708,-70.617,-33.863,-59.542,-33.863,-59.542C-33.863,-59.542,-33.959,-53.242,-32.383,-43.737C-30.224,-30.719,-13.133,18.388,-11.62,23.537C-10.108,28.686,-4.602,47.413,5.985,48.019C16.572,48.625,30.291,44.382,25.79,24.003C22.383,8.577,5.1,-54.801,1.47,-60.859C-2.16,-66.917,-8.225,-74.972,-19.572,-73.033Z; M-19.572,-73.033C-33.708,-70.617,-33.863,-59.542,-33.863,-59.542C-33.863,-59.542,-33.959,-53.242,-32.383,-43.737C-30.224,-30.719,-13.133,18.388,-11.62,23.537C-10.108,28.686,-4.602,47.413,5.985,48.019C16.572,48.625,30.291,44.382,25.79,24.003C22.383,8.577,5.1,-54.801,1.47,-60.859C-2.16,-66.917,-8.225,-74.972,-19.572,-73.033Z; M-24.5,-140.75C-31.75,-139.5,-36,-130.75,-36,-130.75C-36,-130.75,-37.25,-128.25,-35.5,-117.5C-33.75,-106.75,-29.25,-78.75,-28,-74.5C-26.75,-70.25,-23.75,-61.5,-15,-61C-6.25,-60.5,6.5,-62.25,5.5,-75.25C4.5,-88.25,-2.25,-127.25,-5.25,-132.25C-8.25,-137.25,-15.125,-142.366,-24.5,-140.75Z" keyTimes="0; 0.255814; 0.511628; 0.651163; 1" keySplines="0 0 1 1; 0 0 1 1; 0 0 1 1; 0 0 1 1" fill="freeze" /></path></g><g id="i3" transform="matrix(1,0,0,1,-0.916,-1.008)"><path d="M-24.5,-140.75C-33.834,-139.867,-18.084,-136.992,-14.25,-125.75C-10.454,-114.619,-10.589,-109.797,-8.75,-101.375C-6.412,-90.666,-4.584,-81.742,-4,-74.5C-2.97,-61.726,-5.385,-61.785,-1.875,-62.75C2.941,-64.074,5.766,-70.262,5.5,-75.25C4.469,-94.557,2.801,-114.671,-5.25,-132.25C-8.171,-138.627,-17.517,-141.41,-24.5,-140.75Z" fill="#0d76f1"><animate repeatCount="indefinite" attributeName="d" dur="0.717s" begin="0s" calcMode="spline" values="M-24.5,-140.75C-33.834,-139.867,-18.084,-136.992,-14.25,-125.75C-10.454,-114.619,-10.589,-109.797,-8.75,-101.375C-6.412,-90.666,-4.584,-81.742,-4,-74.5C-2.97,-61.726,-5.385,-61.785,-1.875,-62.75C2.941,-64.074,5.766,-70.262,5.5,-75.25C4.469,-94.557,2.801,-114.671,-5.25,-132.25C-8.171,-138.627,-17.517,-141.41,-24.5,-140.75Z; M-23,-114.75C-16.584,-110.742,-9.105,-96.03,-6.25,-84.5C-3.834,-74.742,-2.589,-68.547,-0.75,-60.125C1.588,-49.416,3.416,-40.492,4,-33.25C5.03,-20.476,-1.237,-20.797,2.375,-21.25C8.791,-22.055,13.766,-29.012,13.5,-34C12.469,-53.307,2.822,-88.066,-3.75,-106.25C-8.084,-118.242,-25.412,-116.257,-23,-114.75Z; M-22,-72.5C-15.584,-68.492,-5.605,-53.28,-2.75,-41.75C-0.334,-31.992,3.161,-23.547,5,-15.125C7.338,-4.416,15.416,26.758,16,34C17.03,46.774,10.763,46.453,14.375,46C20.791,45.195,25.766,38.238,25.5,33.25C24.469,13.943,6.322,-45.316,-0.25,-63.5C-4.584,-75.492,-24.412,-74.007,-22,-72.5Z; M-22,-72.5C-15.584,-68.492,-5.605,-53.28,-2.75,-41.75C-0.334,-31.992,3.161,-23.547,5,-15.125C7.338,-4.416,15.416,26.758,16,34C17.03,46.774,10.763,46.453,14.375,46C20.791,45.195,25.766,38.238,25.5,33.25C24.469,13.943,6.322,-45.316,-0.25,-63.5C-4.584,-75.492,-24.412,-74.007,-22,-72.5Z; M-24.5,-140.75C-33.834,-139.867,-18.084,-136.992,-14.25,-125.75C-10.454,-114.619,-10.589,-109.797,-8.75,-101.375C-6.412,-90.666,-4.584,-81.742,-4,-74.5C-2.97,-61.726,-5.385,-61.785,-1.875,-62.75C2.941,-64.074,5.766,-70.262,5.5,-75.25C4.469,-94.557,2.801,-114.671,-5.25,-132.25C-8.171,-138.627,-17.517,-141.41,-24.5,-140.75Z" keyTimes="0; 0.255814; 0.511628; 0.651163; 1" keySplines="0 0 1 1; 0 0 1 1; 0 0 1 1; 0 0 1 1" fill="freeze" /></path></g><g id="i4" transform="matrix(1,0,0,1,-0.916,-1.008)"><path d="M-24.5,-140.75C-31.75,-139.5,-36,-130.75,-36,-130.75C-36,-130.75,-37.25,-128.25,-35.5,-117.5C-33.75,-106.75,-29.25,-78.75,-28,-74.5C-26.75,-70.25,-23.75,-61.5,-15,-61C-6.25,-60.5,6.5,-62.25,5.5,-75.25C4.5,-88.25,-2.25,-127.25,-5.25,-132.25C-8.25,-137.25,-15.125,-142.366,-24.5,-140.75Z" stroke-width="2" stroke="#6b0074"><animate repeatCount="indefinite" attributeName="d" dur="0.717s" begin="0s" calcMode="spline" values="M-24.5,-140.75C-31.75,-139.5,-36,-130.75,-36,-130.75C-36,-130.75,-37.25,-128.25,-35.5,-117.5C-33.75,-106.75,-29.25,-78.75,-28,-74.5C-26.75,-70.25,-23.75,-61.5,-15,-61C-6.25,-60.5,6.5,-62.25,5.5,-75.25C4.5,-88.25,-2.25,-127.25,-5.25,-132.25C-8.25,-137.25,-15.125,-142.366,-24.5,-140.75Z; M-23.25,-115.75C-30.5,-114.5,-34.75,-105.75,-34.75,-105.75C-34.75,-105.75,-36,-103.25,-34.25,-92.5C-32.5,-81.75,-21.75,-38.75,-20.5,-34.5C-19.25,-30.25,-16.25,-21.5,-7.5,-21C1.25,-20.5,14,-22.25,13,-35.25C12,-48.25,-1,-102.25,-4,-107.25C-7,-112.25,-13.875,-117.366,-23.25,-115.75Z; M-19.572,-73.033C-33.708,-70.617,-33.863,-59.542,-33.863,-59.542C-33.863,-59.542,-33.959,-53.242,-32.383,-43.737C-30.224,-30.719,-13.133,18.388,-11.62,23.537C-10.108,28.686,-4.602,47.413,5.985,48.019C16.572,48.625,30.291,44.382,25.79,24.003C22.383,8.577,5.1,-54.801,1.47,-60.859C-2.16,-66.917,-8.225,-74.972,-19.572,-73.033Z; M-19.572,-73.033C-33.708,-70.617,-33.863,-59.542,-33.863,-59.542C-33.863,-59.542,-33.959,-53.242,-32.383,-43.737C-30.224,-30.719,-13.133,18.388,-11.62,23.537C-10.108,28.686,-4.602,47.413,5.985,48.019C16.572,48.625,30.291,44.382,25.79,24.003C22.383,8.577,5.1,-54.801,1.47,-60.859C-2.16,-66.917,-8.225,-74.972,-19.572,-73.033Z; M-24.5,-140.75C-31.75,-139.5,-36,-130.75,-36,-130.75C-36,-130.75,-37.25,-128.25,-35.5,-117.5C-33.75,-106.75,-29.25,-78.75,-28,-74.5C-26.75,-70.25,-23.75,-61.5,-15,-61C-6.25,-60.5,6.5,-62.25,5.5,-75.25C4.5,-88.25,-2.25,-127.25,-5.25,-132.25C-8.25,-137.25,-15.125,-142.366,-24.5,-140.75Z" keyTimes="0; 0.255814; 0.511628; 0.651163; 1" keySplines="0 0 1 1; 0 0 1 1; 0 0 1 1; 0 0 1 1" fill="freeze" /></path></g></g><g transform="matrix(1,0,0,1,256,256)" id="i8"><g id="i1"><path d="M30,-130.75C21.5,-132.25,17,-130.25,17,-130.25C17,-130.25,8.25,-128.5,6.75,-118C5.25,-107.5,4.75,-74.5,8,-67.75C11.25,-61,11.5,-58.75,22.25,-57.75C33,-56.75,36.5,-64,38.75,-68C41,-72,40.75,-116,40.5,-116.25C40.25,-116.5,39.888,-129.005,30,-130.75Z" fill="#4a90e2"><animate repeatCount="indefinite" attributeName="d" dur="0.717s" begin="0s" calcMode="spline" values="M30,-130.75C21.5,-132.25,17,-130.25,17,-130.25C17,-130.25,8.25,-128.5,6.75,-118C5.25,-107.5,4.75,-74.5,8,-67.75C11.25,-61,11.5,-58.75,22.25,-57.75C33,-56.75,36.5,-64,38.75,-68C41,-72,40.75,-116,40.5,-116.25C40.25,-116.5,39.888,-129.005,30,-130.75Z; M30,-133.122C21.5,-134.622,17,-132.622,17,-132.622C17,-132.622,8.25,-130.872,6.75,-120.372C5.25,-109.872,5.029,-76.314,8.279,-69.564C11.529,-62.814,11.779,-60.564,22.529,-59.564C33.279,-58.564,36.779,-65.814,39.029,-69.814C41.279,-73.814,40.75,-118.372,40.5,-118.622C40.25,-118.872,39.888,-131.377,30,-133.122Z; M30,-129.599C21.5,-131.099,17,-129.099,17,-129.099C17,-129.099,8.25,-127.349,6.75,-116.849C5.25,-106.349,5.262,-72.326,8.512,-65.576C11.762,-58.826,12.012,-56.576,22.762,-55.576C33.512,-54.576,37.012,-61.826,39.262,-65.826C41.512,-69.826,40.75,-114.849,40.5,-115.099C40.25,-115.349,39.888,-127.854,30,-129.599Z; M30,-72.948C22.029,-76.26,15.5,-73.948,15.5,-73.948C15.5,-73.948,6.75,-72.198,5.25,-61.698C3.75,-51.198,27.273,28.849,30.523,35.599C33.773,42.349,34.023,44.599,44.773,45.599C55.523,46.599,59.995,39.757,61.273,35.349C65,22.5,45.75,-45.698,45.5,-45.948C45.25,-46.198,39.5,-69,30,-72.948Z; M30,-72.948C22.029,-76.26,15.5,-73.948,15.5,-73.948C15.5,-73.948,6.75,-72.198,5.25,-61.698C3.75,-51.198,27.273,28.849,30.523,35.599C33.773,42.349,34.023,44.599,44.773,45.599C55.523,46.599,59.995,39.757,61.273,35.349C65,22.5,45.75,-45.698,45.5,-45.948C45.25,-46.198,39.5,-69,30,-72.948Z; M30,-130.75C21.5,-132.25,17,-130.25,17,-130.25C17,-130.25,8.25,-128.5,6.75,-118C5.25,-107.5,4.75,-74.5,8,-67.75C11.25,-61,11.5,-58.75,22.25,-57.75C33,-56.75,36.5,-64,38.75,-68C41,-72,40.75,-116,40.5,-116.25C40.25,-116.5,39.888,-129.005,30,-130.75Z" keyTimes="0; 0.139535; 0.255814; 0.511628; 0.697674; 1" keySplines="0 0 1 1; 0 0 1 1; 0 0 1 1; 0 0 1 1; 0 0 1 1" fill="freeze" /></path></g><g id="i3"><path d="M30,-130.75C21.5,-132.25,17,-130.25,17,-130.25C17,-130.25,25.75,-129.5,29,-118.25C32.492,-106.161,31.387,-87.727,29.75,-75.25C28.924,-68.957,25.511,-58.669,26.75,-58.5C32.25,-57.75,36.5,-64,38.75,-68C41,-72,40.75,-116,40.5,-116.25C40.25,-116.5,39.888,-129.005,30,-130.75Z" fill="#0d76f1"><animate repeatCount="indefinite" attributeName="d" dur="0.717s" begin="0s" calcMode="spline" values="M30,-130.75C21.5,-132.25,17,-130.25,17,-130.25C17,-130.25,25.75,-129.5,29,-118.25C32.492,-106.161,31.387,-87.727,29.75,-75.25C28.924,-68.957,25.511,-58.669,26.75,-58.5C32.25,-57.75,36.5,-64,38.75,-68C41,-72,40.75,-116,40.5,-116.25C40.25,-116.5,39.888,-129.005,30,-130.75Z; M29.75,-133C21.25,-134.5,16.75,-132.5,16.75,-132.5C16.75,-132.5,25.5,-131.75,28.75,-120.5C32.242,-108.411,31.137,-89.977,29.5,-77.5C28.674,-71.207,25.261,-60.919,26.5,-60.75C32,-60,36.25,-66.25,38.5,-70.25C40.75,-74.25,40.5,-118.25,40.25,-118.5C40,-118.75,39.638,-131.255,29.75,-133Z; M30,-128.75C21.5,-130.25,17,-128.25,17,-128.25C17,-128.25,25.75,-127.5,29,-116.25C32.492,-104.161,31.387,-85.727,29.75,-73.25C28.924,-66.957,25.511,-56.669,26.75,-56.5C32.25,-55.75,36.5,-62,38.75,-66C41,-70,40.75,-114,40.5,-114.25C40.25,-114.5,39.888,-127.005,30,-128.75Z; M28,-73.75C19.5,-75.25,13,-73.25,13,-73.25C13,-73.25,26.25,-71,29.5,-59.75C32.992,-47.661,52,14.75,52.75,28C53.109,34.336,51.015,43.81,52.25,44C55.5,44.5,61.006,39.779,61.75,35.25C64.5,18.5,44,-52,43.75,-52.25C43.5,-52.5,37.888,-72.005,28,-73.75Z; M28,-73.75C19.5,-75.25,13,-73.25,13,-73.25C13,-73.25,26.25,-71,29.5,-59.75C32.992,-47.661,52,14.75,52.75,28C53.109,34.336,51.015,43.81,52.25,44C55.5,44.5,61.006,39.779,61.75,35.25C64.5,18.5,44,-52,43.75,-52.25C43.5,-52.5,37.888,-72.005,28,-73.75Z; M30,-130.75C21.5,-132.25,17,-130.25,17,-130.25C17,-130.25,25.75,-129.5,29,-118.25C32.492,-106.161,31.387,-87.727,29.75,-75.25C28.924,-68.957,25.511,-58.669,26.75,-58.5C32.25,-57.75,36.5,-64,38.75,-68C41,-72,40.75,-116,40.5,-116.25C40.25,-116.5,39.888,-129.005,30,-130.75Z" keyTimes="0; 0.139535; 0.255814; 0.511628; 0.697674; 1" keySplines="0 0 1 1; 0 0 1 1; 0 0 1 1; 0 0 1 1; 0 0 1 1" fill="freeze" /></path></g><g id="i4"><path d="M30,-130.75C21.5,-132.25,17,-130.25,17,-130.25C17,-130.25,8.25,-128.5,6.75,-118C5.25,-107.5,4.75,-74.5,8,-67.75C11.25,-61,11.5,-58.75,22.25,-57.75C33,-56.75,36.5,-64,38.75,-68C41,-72,40.75,-116,40.5,-116.25C40.25,-116.5,39.888,-129.005,30,-130.75Z" stroke-width="2" stroke="#6b0074"><animate repeatCount="indefinite" attributeName="d" dur="0.717s" begin="0s" calcMode="spline" values="M30,-130.75C21.5,-132.25,17,-130.25,17,-130.25C17,-130.25,8.25,-128.5,6.75,-118C5.25,-107.5,4.75,-74.5,8,-67.75C11.25,-61,11.5,-58.75,22.25,-57.75C33,-56.75,36.5,-64,38.75,-68C41,-72,40.75,-116,40.5,-116.25C40.25,-116.5,39.888,-129.005,30,-130.75Z; M30,-133.122C21.5,-134.622,17,-132.622,17,-132.622C17,-132.622,8.25,-130.872,6.75,-120.372C5.25,-109.872,5.029,-76.314,8.279,-69.564C11.529,-62.814,11.779,-60.564,22.529,-59.564C33.279,-58.564,36.779,-65.814,39.029,-69.814C41.279,-73.814,40.75,-118.372,40.5,-118.622C40.25,-118.872,39.888,-131.377,30,-133.122Z; M30,-129.599C21.5,-131.099,17,-129.099,17,-129.099C17,-129.099,8.25,-127.349,6.75,-116.849C5.25,-106.349,5.262,-72.326,8.512,-65.576C11.762,-58.826,12.012,-56.576,22.762,-55.576C33.512,-54.576,37.012,-61.826,39.262,-65.826C41.512,-69.826,40.75,-114.849,40.5,-115.099C40.25,-115.349,39.888,-127.854,30,-129.599Z; M30,-72.948C22.029,-76.26,15.5,-73.948,15.5,-73.948C15.5,-73.948,6.75,-72.198,5.25,-61.698C3.75,-51.198,27.273,28.849,30.523,35.599C33.773,42.349,34.023,44.599,44.773,45.599C55.523,46.599,59.995,39.757,61.273,35.349C65,22.5,45.75,-45.698,45.5,-45.948C45.25,-46.198,39.5,-69,30,-72.948Z; M30,-72.948C22.029,-76.26,15.5,-73.948,15.5,-73.948C15.5,-73.948,6.75,-72.198,5.25,-61.698C3.75,-51.198,27.273,28.849,30.523,35.599C33.773,42.349,34.023,44.599,44.773,45.599C55.523,46.599,59.995,39.757,61.273,35.349C65,22.5,45.75,-45.698,45.5,-45.948C45.25,-46.198,39.5,-69,30,-72.948Z; M30,-130.75C21.5,-132.25,17,-130.25,17,-130.25C17,-130.25,8.25,-128.5,6.75,-118C5.25,-107.5,4.75,-74.5,8,-67.75C11.25,-61,11.5,-58.75,22.25,-57.75C33,-56.75,36.5,-64,38.75,-68C41,-72,40.75,-116,40.5,-116.25C40.25,-116.5,39.888,-129.005,30,-130.75Z" keyTimes="0; 0.139535; 0.255814; 0.511628; 0.697674; 1" keySplines="0 0 1 1; 0 0 1 1; 0 0 1 1; 0 0 1 1; 0 0 1 1" fill="freeze" /></path></g></g><g transform="matrix(1,0,0,1,255.892,367)" id="i9"><g><g id="i10" transform="translate(0,0)"><animateTransform repeatCount="indefinite" type="translate" attributeName="transform" dur="0.717s" begin="0s" calcMode="spline" values="0 0; 0 0; 0 -3.302; 0 0" keyTimes="0; 0.767442; 0.906977; 1" keySplines="0 0 1 1; 1 0 0 1; 1 0 0 1" fill="freeze" /><path fill="#444444" d="M37.772,-7.429C37.772,-7.429,37.772,-4.807,37.772,-4.807C37.772,-4.807,40.242,-4.807,40.242,-4.807C40.14,-4.186,39.811,-3.689,39.254,-3.316C38.696,-2.942,37.987,-2.755,37.126,-2.755C36.062,-2.755,35.251,-3.173,34.694,-4.009C34.212,-4.731,33.972,-5.655,33.972,-6.783C33.972,-7.91,34.212,-8.835,34.694,-9.557C35.251,-10.393,36.062,-10.811,37.126,-10.811C37.848,-10.811,38.462,-10.642,38.969,-10.307C39.475,-9.971,39.754,-9.519,39.805,-8.949C39.805,-8.949,43.339,-8.949,43.339,-8.949C43.187,-10.545,42.477,-11.786,41.211,-12.673C40.083,-13.458,38.747,-13.851,37.202,-13.851C35.188,-13.851,33.556,-13.176,32.309,-11.827C31.061,-10.478,30.438,-8.797,30.438,-6.783C30.438,-4.769,31.052,-3.097,32.281,-1.767C33.547,-0.399,35.188,0.285,37.202,0.285C38.886,0.285,40.147,-0.304,40.983,-1.482C40.983,-1.482,41.192,0,41.192,0C41.192,0,43.472,0,43.472,0C43.472,0,43.472,-7.429,43.472,-7.429C43.472,-7.429,37.772,-7.429,37.772,-7.429Z" /></g></g><g><g id="i11" transform="translate(0,0)"><animateTransform repeatCount="indefinite" type="translate" attributeName="transform" dur="0.717s" begin="0s" calcMode="spline" values="0 0; 0 0; 0 -3.659; 0 0; 0 0" keyTimes="0; 0.651163; 0.767442; 0.869549; 1" keySplines="0 0 1 1; 1 0 0 1; 1 0 0 1; 0 0 1 1" fill="freeze" /><path fill="#444444" d="M20.159,0C20.159,0,20.159,-8.455,20.159,-8.455C20.159,-8.455,24.892,0,24.892,0C24.892,0,28.538,0,28.538,0C28.538,0,28.538,-13.566,28.538,-13.566C28.538,-13.566,25.213,-13.566,25.213,-13.566C25.213,-13.566,25.213,-5.206,25.213,-5.206C25.213,-5.206,20.479,-13.566,20.479,-13.566C20.479,-13.566,16.834,-13.566,16.834,-13.566C16.834,-13.566,16.834,0,16.834,0C16.834,0,20.159,0,20.159,0Z" /></g></g><g><g id="i12" transform="translate(0,0)"><animateTransform repeatCount="indefinite" type="translate" attributeName="transform" dur="0.717s" begin="0s" calcMode="spline" values="0 0; 0 0; 0 -3.423; 0 0; 0 0" keyTimes="0; 0.511628; 0.651163; 0.739144; 1" keySplines="0 0 1 1; 1 0 0 1; 1 0 0 1; 0 0 1 1" fill="freeze" /><path fill="#444444" d="M14.421,0C14.421,0,14.421,-13.566,14.421,-13.566C14.421,-13.566,10.887,-13.566,10.887,-13.566C10.887,-13.566,10.887,0,10.887,0C10.887,0,14.421,0,14.421,0Z" /></g></g><g><g id="i13" transform="translate(0,0)"><animateTransform repeatCount="indefinite" type="translate" attributeName="transform" dur="0.717s" begin="0s" calcMode="spline" values="0 0; 0 0; 0 -3.212; 0 0; 0 0" keyTimes="0; 0.372093; 0.511629; 0.608694; 1" keySplines="0 0 1 1; 1 0 0 1; 1 0 0 1; 0 0 1 1" fill="freeze" /><path fill="#444444" d="M1.672,-10.526C4.167,-10.526,5.415,-9.303,5.415,-6.859C5.415,-5.503,5.127,-4.528,4.551,-3.933C3.974,-3.337,3.014,-3.04,1.672,-3.04C1.672,-3.04,0,-3.04,0,-3.04C0,-3.04,0,-10.526,0,-10.526C0,-10.526,1.672,-10.526,1.672,-10.526ZM2.299,0C4.389,0,6.02,-0.589,7.192,-1.767C8.363,-2.945,8.949,-4.636,8.949,-6.84C8.949,-8.942,8.36,-10.589,7.182,-11.78C6.004,-12.97,4.376,-13.566,2.299,-13.566C2.299,-13.566,-3.534,-13.566,-3.534,-13.566C-3.534,-13.566,-3.534,0,-3.534,0C-3.534,0,2.299,0,2.299,0Z" /></g></g><g><g id="i14" transform="translate(0,0)"><animateTransform repeatCount="indefinite" type="translate" attributeName="transform" dur="0.717s" begin="0s" calcMode="spline" values="0 0; 0 0; 0 -3.55; 0 0; 0 0" keyTimes="0; 0.255813; 0.372093; 0.478243; 1" keySplines="0 0 1 1; 1 0 0 1; 1 0 0 1; 0 0 1 1" fill="freeze" /><path fill="#444444" d="M-14.668,0C-14.668,0,-13.813,-2.432,-13.813,-2.432C-13.813,-2.432,-9.082,-2.432,-9.082,-2.432C-9.082,-2.432,-8.246,0,-8.246,0C-8.246,0,-4.56,0,-4.56,0C-4.56,0,-9.633,-13.566,-9.633,-13.566C-9.633,-13.566,-13.224,-13.566,-13.224,-13.566C-13.224,-13.566,-18.297,0,-18.297,0C-18.297,0,-14.668,0,-14.668,0ZM-11.419,-9.804C-11.419,-9.804,-9.918,-5.054,-9.918,-5.054C-9.918,-5.054,-12.996,-5.054,-12.996,-5.054C-12.996,-5.054,-11.457,-9.804,-11.457,-9.804C-11.457,-9.804,-11.419,-9.804,-11.419,-9.804Z" /></g></g><g><g id="i15" transform="translate(0,0)"><animateTransform repeatCount="indefinite" type="translate" attributeName="transform" dur="0.717s" begin="0s" calcMode="spline" values="0 0; 0 0; 0 -3.326; 0 0; 0 0" keyTimes="0; 0.116279; 0.255814; 0.347838; 1" keySplines="0 0 1 1; 1 0 0 1; 1 0 0 1; 0 0 1 1" fill="freeze" /><path fill="#444444" d="M-27.949,-9.557C-27.392,-10.393,-26.581,-10.811,-25.517,-10.811C-24.453,-10.811,-23.643,-10.393,-23.085,-9.557C-22.604,-8.835,-22.363,-7.91,-22.363,-6.783C-22.363,-5.655,-22.604,-4.731,-23.085,-4.009C-23.643,-3.173,-24.453,-2.755,-25.517,-2.755C-26.581,-2.755,-27.392,-3.173,-27.949,-4.009C-28.431,-4.731,-28.671,-5.655,-28.671,-6.783C-28.671,-7.91,-28.431,-8.835,-27.949,-9.557ZM-30.457,-1.767C-29.241,-0.399,-27.595,0.285,-25.517,0.285C-23.44,0.285,-21.793,-0.399,-20.577,-1.767C-19.412,-3.071,-18.829,-4.743,-18.829,-6.783C-18.829,-8.822,-19.412,-10.494,-20.577,-11.799C-21.793,-13.167,-23.44,-13.851,-25.517,-13.851C-27.595,-13.851,-29.241,-13.167,-30.457,-11.799C-31.623,-10.494,-32.205,-8.822,-32.205,-6.783C-32.205,-4.743,-31.623,-3.071,-30.457,-1.767Z" /></g></g><g><g id="i16" transform="translate(0,0)"><animateTransform repeatCount="indefinite" type="translate" attributeName="transform" dur="0.717s" begin="0s" calcMode="spline" values="0 0; 0 -3.686; 0 0; 0 0" keyTimes="0; 0.116279; 0.217387; 1" keySplines="1 0 0 1; 1 0 0 1; 0 0 1 1" fill="freeze" /><path fill="#444444" d="M-33.44,0C-33.44,0,-33.44,-3.04,-33.44,-3.04C-33.44,-3.04,-39.767,-3.04,-39.767,-3.04C-39.767,-3.04,-39.767,-13.566,-39.767,-13.566C-39.767,-13.566,-43.301,-13.566,-43.301,-13.566C-43.301,-13.566,-43.301,0,-43.301,0C-43.301,0,-33.44,0,-33.44,0Z" /></g></g></g></svg>