<svg fill="none" height="100%" width="100%" viewBox="0 0 1080 1080" xmlns:xlink="http://www.w3.org/1999/xlink" xmlns="http://www.w3.org/2000/svg"><g opacity="0.5" id="i0"><g transform="translate(574.5,957) rotate(1)"><g transform="scale(1.18,1.18)"><animateTransform repeatCount="indefinite" type="scale" attributeName="transform" dur="3.003s" begin="0s" calcMode="spline" values="1.18 1.18; 1.08 1.1; 1.18 1.18; 1.18 1.18" keyTimes="0; 0.5; 1; 1" keySplines="0.655 0 0.311 1; 0.655 0 0.311 1; 0 0 1 1" fill="freeze" /><g transform="translate(-48.5,-425)"><g id="i1" transform="matrix(1,0,0,1,48.5,425)"><ellipse ry="27" rx="163.5" cy="0" cx="0" fill="#000000" /></g></g></g></g></g><g id="i2"><g transform="translate(572.837,722.169)"><animateTransform repeatCount="indefinite" type="translate" attributeName="transform" dur="3.003s" begin="0s" calcMode="spline" values="572.837 722.169; 572.837 689.169; 572.837 722.169; 572.837 722.169" keyTimes="0; 0.5; 1; 1" keySplines="0.695 0 0.271 1; 0.695 0 0.271 1; 0 0 1 1" fill="freeze" /><g transform="scale(1,1) translate(-102.19,-242.346)"><g id="i3"><g transform="translate(136.892,70.305)"><g transform="rotate(0)"><animateTransform repeatCount="indefinite" type="rotate" attributeName="transform" dur="3.003s" begin="0s" calcMode="spline" values="0; -15; 0; 0" keyTimes="0; 0.5; 1; 1" keySplines="0.695 0 0.271 1; 0.695 0 0.271 1; 0 0 1 1" fill="freeze" /><g transform="scale(1,1) translate(-13.43,-18.385)"><g id="i4"><g transform="translate(125.95,45.284)"><g transform="rotate(0)"><animateTransform repeatCount="indefinite" type="rotate" attributeName="transform" dur="3.003s" begin="0s" calcMode="spline" values="0; -6; 0; 0" keyTimes="0; 0.5; 1; 1" keySplines="0.695 0 0.271 1; 0.695 0 0.271 1; 0 0 1 1" fill="freeze" /><g transform="scale(1,1) translate(-63.328,-60.974)"><g id="i5" transform="matrix(1,0,0,1,37.828,30.974)"><path fill="#3d1d16" d="M18.814,29.449C17.574,27.399,16.808,7.548,10.785,1.29C-8.85,-19.385,-37.578,-6.831,-36.614,-23.195C-36.406,-26.767,-31.312,-30.723,-28.318,-24.958C-25.051,-18.762,0.233,-24.666,17.483,-11.65C26.295,-4.99,37.578,12.414,33.209,26.834C32.184,30.261,33.262,30.723,32.332,30.589C30.324,29.992,19.372,30.423,18.814,29.449Z" /></g></g></g></g></g></g></g></g></g></g></g></g><g id="i2"><g transform="translate(572.837,722.169)"><animateTransform repeatCount="indefinite" type="translate" attributeName="transform" dur="3.003s" begin="0s" calcMode="spline" values="572.837 722.169; 572.837 689.169; 572.837 722.169; 572.837 722.169" keyTimes="0; 0.5; 1; 1" keySplines="0.695 0 0.271 1; 0.695 0 0.271 1; 0 0 1 1" fill="freeze" /><g transform="scale(1,1) translate(-102.19,-242.346)"><g id="i3"><g transform="translate(136.892,70.305)"><g transform="rotate(0)"><animateTransform repeatCount="indefinite" type="rotate" attributeName="transform" dur="3.003s" begin="0s" calcMode="spline" values="0; -15; 0; 0" keyTimes="0; 0.5; 1; 1" keySplines="0.695 0 0.271 1; 0.695 0 0.271 1; 0 0 1 1" fill="freeze" /><g transform="scale(1,1) translate(-13.43,-18.385)"><g id="i6" transform="matrix(1,0,0,1,71.93,66.385)"><path fill="#fe8627" d="M-71.43,-34.96C-40.641,-16.11,18.566,61.234,50.652,65.863C55.835,66.136,42.06,44.518,54.886,56.839C57.01,58.57,52.993,51.764,54.717,46.204C60.597,27.506,71.681,-14.287,63.672,-22.061C59.348,-24.025,49.645,-28.189,42.802,-25.658C39.38,-24.392,26.455,-12.993,25.56,-7.175C23.429,4.497,-36.82,-61.557,-54.812,-66.135C-59.619,-66.103,-71.68,-35.164,-71.43,-34.96Z" /></g><g id="i5" transform="matrix(1,0,0,1,118.038,64.221)"><path fill="#fe8627" d="M16.991,16.014C20.405,0.088,22.142,-15.437,17.564,-19.895C13.365,-21.758,3.775,-25.933,-2.955,-23.414C-6.376,-22.148,-19.297,-8.459,-20.204,-2.754C-22.142,8.555,-3.874,25.933,16.991,16.014Z" /></g></g></g></g></g></g></g></g><g id="i2"><g transform="translate(572.837,722.169)"><animateTransform repeatCount="indefinite" type="translate" attributeName="transform" dur="3.003s" begin="0s" calcMode="spline" values="572.837 722.169; 572.837 689.169; 572.837 722.169; 572.837 722.169" keyTimes="0; 0.5; 1; 1" keySplines="0.695 0 0.271 1; 0.695 0 0.271 1; 0 0 1 1" fill="freeze" /><g transform="scale(1,1) translate(-102.19,-242.346)"><g id="i7"><g transform="translate(66.42,68.578)"><g transform="rotate(0)"><animateTransform repeatCount="indefinite" type="rotate" attributeName="transform" dur="3.003s" begin="0s" calcMode="spline" values="0; 15; 0; 0" keyTimes="0; 0.5; 1; 1" keySplines="0.695 0 0.271 1; 0.695 0 0.271 1; 0 0 1 1" fill="freeze" /><g transform="scale(1,1) translate(-130.43,-15.885)"><g id="i8"><g transform="translate(17.411,44.283)"><g transform="rotate(0)"><animateTransform repeatCount="indefinite" type="rotate" attributeName="transform" dur="3.003s" begin="0s" calcMode="spline" values="0; 6; 0; 0" keyTimes="0; 0.5; 1; 1" keySplines="0.695 0 0.271 1; 0.695 0 0.271 1; 0 0 1 1" fill="freeze" /><g transform="scale(1,1) translate(-11.828,-59.974)"><g id="i5" transform="matrix(1,0,0,1,37.828,30.974)"><path fill="#3d1d16" d="M-18.814,29.449C-17.574,27.399,-16.808,7.548,-10.785,1.29C8.85,-19.385,37.578,-6.831,36.614,-23.195C36.406,-26.767,31.312,-30.723,28.318,-24.958C25.051,-18.762,-0.233,-24.666,-17.483,-11.65C-26.295,-4.99,-37.578,12.414,-33.209,26.834C-32.184,30.261,-33.262,30.723,-32.332,30.589C-30.324,29.992,-19.372,30.423,-18.814,29.449Z" /></g></g></g></g></g></g></g></g></g></g></g></g><g id="i2"><g transform="translate(572.837,722.169)"><animateTransform repeatCount="indefinite" type="translate" attributeName="transform" dur="3.003s" begin="0s" calcMode="spline" values="572.837 722.169; 572.837 689.169; 572.837 722.169; 572.837 722.169" keyTimes="0; 0.5; 1; 1" keySplines="0.695 0 0.271 1; 0.695 0 0.271 1; 0 0 1 1" fill="freeze" /><g transform="scale(1,1) translate(-102.19,-242.346)"><g id="i7"><g transform="translate(66.42,68.578)"><g transform="rotate(0)"><animateTransform repeatCount="indefinite" type="rotate" attributeName="transform" dur="3.003s" begin="0s" calcMode="spline" values="0; 15; 0; 0" keyTimes="0; 0.5; 1; 1" keySplines="0.695 0 0.271 1; 0.695 0 0.271 1; 0 0 1 1" fill="freeze" /><g transform="scale(1,1) translate(-130.43,-15.885)"><g id="i6" transform="matrix(1,0,0,1,71.93,66.386)"><path fill="#fe8627" d="M71.43,-34.96C40.641,-16.11,-18.567,61.234,-50.654,65.863C-55.836,66.136,-42.061,44.518,-54.887,56.839C-57.011,58.57,-52.994,51.764,-54.718,46.204C-60.598,27.506,-71.681,-14.287,-63.672,-22.061C-59.348,-24.025,-49.645,-28.189,-42.802,-25.658C-39.38,-24.392,-26.455,-12.993,-25.56,-7.175C-23.429,4.497,36.82,-61.557,54.812,-66.135C59.619,-66.103,71.68,-35.164,71.43,-34.96Z" /></g><g id="i5" transform="matrix(1,0,0,1,25.823,64.221)"><path fill="#fe8627" d="M-16.991,16.014C-20.405,0.088,-22.142,-15.437,-17.564,-19.895C-13.365,-21.758,-3.775,-25.933,2.955,-23.414C6.376,-22.148,19.297,-8.459,20.204,-2.754C22.142,8.555,3.874,25.933,-16.991,16.014Z" /></g></g></g></g></g></g></g></g><g transform="matrix(0.966,0.259,-0.259,0.966,517.635,631.033)" id="i9"><g id="i6" transform="matrix(1,0,0,1,125.35,186.125)"><path d="M0.049,-57.887C-1.098,-61.896,-12.035,-49.679,-13.156,-52.592C-25.965,-23.333,-36.19,95.235,125.1,70.172C52.286,179.837,-110.672,110.656,-97.021,-51.18C-90.278,-131.12,1.848,-185.875,27.565,-113.545C35.436,-91.247,12.852,-73.043,10.753,-62.487C5.579,-60.479,4.837,-63.22,0.049,-57.887Z" fill="#f07d1f"><animate repeatCount="indefinite" attributeName="d" dur="3.003s" begin="0s" calcMode="spline" values="M0.049,-57.887C-1.098,-61.896,-12.035,-49.679,-13.156,-52.592C-25.965,-23.333,-36.19,95.235,125.1,70.172C52.286,179.837,-110.672,110.656,-97.021,-51.18C-90.278,-131.12,1.848,-185.875,27.565,-113.545C35.436,-91.247,12.852,-73.043,10.753,-62.487C5.579,-60.479,4.837,-63.22,0.049,-57.887Z; M-3.385,-128.66C-4.532,-132.669,-12.969,-130.439,-14.09,-133.352C-22.083,-166.44,-36.19,95.235,125.1,70.172C60.739,185.875,-107.593,54.916,-79.172,-100.479C-64.815,-179.408,-69.257,-188.765,-22.569,-155.758C-14.698,-133.46,9.418,-143.816,7.319,-133.26C2.145,-131.252,1.403,-133.993,-3.385,-128.66Z; M0.049,-57.887C-1.098,-61.896,-12.035,-49.679,-13.156,-52.592C-25.965,-23.333,-36.19,95.235,125.1,70.172C52.286,179.837,-110.672,110.656,-97.021,-51.18C-90.278,-131.12,1.848,-185.875,27.565,-113.545C35.436,-91.247,12.852,-73.043,10.753,-62.487C5.579,-60.479,4.837,-63.22,0.049,-57.887Z" keyTimes="0; 0.5; 1" keySplines="0.695 0 0.265 1; 0.695 0 0.259 1" fill="freeze" /></path></g><g id="i5" transform="matrix(1,0,0,1,178.694,277.123)"><path d="M71.756,-20.826C48.597,26.876,-29.05,50.848,-79.664,15.843C-70.503,15.497,-61.657,16.486,-52.515,18.136C-57.467,12.768,-61.142,6.647,-64.431,0.166C-56.343,1.753,-41.869,-2.06,-35.054,2.342C-39.864,-4.477,-43.779,-11.144,-46.305,-18.784C-37.391,-16.536,-31.962,-11.656,-24.878,-7.94C-33.348,-13.664,-33.248,-24.206,-33.991,-31.602C-13.806,-20.073,4.916,-19.266,13.496,-17.742C28.092,-16.805,46.051,-17.919,71.756,-20.826Z" fill="#f7e6c9"><animate repeatCount="indefinite" attributeName="d" dur="3.003s" begin="0s" calcMode="spline" values="M71.756,-20.826C48.597,26.876,-29.05,50.848,-79.664,15.843C-70.503,15.497,-61.657,16.486,-52.515,18.136C-57.467,12.768,-61.142,6.647,-64.431,0.166C-56.343,1.753,-41.869,-2.06,-35.054,2.342C-39.864,-4.477,-43.779,-11.144,-46.305,-18.784C-37.391,-16.536,-31.962,-11.656,-24.878,-7.94C-33.348,-13.664,-33.248,-24.206,-33.991,-31.602C-13.806,-20.073,4.916,-19.266,13.496,-17.742C28.092,-16.805,46.051,-17.919,71.756,-20.826Z; M71.756,-20.826C40.071,37.584,-20.192,32.884,-64.292,-4.064C-55.131,-4.41,-47.428,-2.856,-38.286,-1.206C-43.238,-6.574,-46.913,-12.695,-50.202,-19.176C-42.114,-17.589,-34.356,-15.073,-27.541,-10.671C-32.351,-17.49,-35.791,-24.801,-38.317,-32.441C-29.403,-30.193,-21.07,-27.515,-13.986,-23.799C-22.456,-29.523,-26.627,-36.203,-27.37,-43.599C-3.331,-38.022,3.454,-27.261,19.947,-23.612C32.972,-21.001,46.051,-17.919,71.756,-20.826Z; M71.756,-20.826C48.597,26.876,-29.05,50.848,-79.664,15.843C-70.503,15.497,-61.657,16.486,-52.515,18.136C-57.467,12.768,-61.142,6.647,-64.431,0.166C-56.343,1.753,-41.869,-2.06,-35.054,2.342C-39.864,-4.477,-43.779,-11.144,-46.305,-18.784C-37.391,-16.536,-31.962,-11.656,-24.878,-7.94C-33.348,-13.664,-33.248,-24.206,-33.991,-31.602C-13.806,-20.073,4.916,-19.265,13.496,-17.742C28.092,-16.805,46.051,-17.919,71.756,-20.826Z" keyTimes="0; 0.5; 1" keySplines="0.695 0 0.265 1; 0.695 0 0.259 1" fill="freeze" /></path></g></g><g id="i2"><g transform="translate(572.837,722.169)"><animateTransform repeatCount="indefinite" type="translate" attributeName="transform" dur="3.003s" begin="0s" calcMode="spline" values="572.837 722.169; 572.837 689.169; 572.837 722.169; 572.837 722.169" keyTimes="0; 0.5; 1; 1" keySplines="0.695 0 0.271 1; 0.695 0 0.271 1; 0 0 1 1" fill="freeze" /><g transform="scale(1,1) translate(-102.19,-242.346)"><g id="i6" transform="matrix(1,0,0,1,98.19,171.346)"><path fill="#fe8627" d="M-29.456,-171.096C-27.405,-84.266,-97.94,48.257,-86.545,91.786C-63.983,171.096,83.241,168.818,97.485,85.292C97.94,31.394,25.24,-111.386,39.598,-167.791C32.419,-167.791,-9.173,-165.626,-29.456,-171.096Z" /></g><g id="i5" transform="matrix(1,0,0,1,98.931,121.664)"><path fill="#f7e6c9" d="M-31.108,-121.3C-31.564,-118.337,-32.02,-103.524,-34.071,-86.203C-54.468,-26.607,-50.936,45.865,-36.693,68.883C-34.186,67.06,-25.639,53.728,-22.677,44.498C-15.612,61.134,-17.435,98.738,5.469,121.3C13.787,89.052,16.865,58.172,20.284,40.395C26.551,51.107,24.385,53.386,39.198,66.49C46.491,14.871,54.469,-11.338,41.364,-88.938C41.592,-104.777,38.63,-116.628,38.857,-117.654C31.678,-117.654,-10.939,-115.147,-31.108,-121.3Z" /></g></g></g></g><g id="i2"><g transform="translate(572.837,722.169)"><animateTransform repeatCount="indefinite" type="translate" attributeName="transform" dur="3.003s" begin="0s" calcMode="spline" values="572.837 722.169; 572.837 689.169; 572.837 722.169; 572.837 722.169" keyTimes="0; 0.5; 1; 1" keySplines="0.695 0 0.271 1; 0.695 0 0.271 1; 0 0 1 1" fill="freeze" /><g transform="scale(1,1) translate(-102.19,-242.346)"><g id="i10"><g transform="translate(-31.723,250.764)"><g transform="rotate(0)"><animateTransform repeatCount="indefinite" type="rotate" attributeName="transform" dur="3.003s" begin="0s" calcMode="spline" values="0; -9; 0; 0" keyTimes="0; 0.5; 1; 1" keySplines="0.695 0 0.271 1; 0.695 0 0.271 1; 0 0 1 1" fill="freeze" /><g transform="scale(1,1) translate(-9.414,-17.621)"><g id="i5" transform="matrix(1,0,0,1,104.913,48.622)"><path fill="#4f261d" d="M-81.759,-44.384C-90.305,-48.03,-104.663,-48.371,-104.663,-24.556C-104.663,-14.756,-98.282,-5.868,-87.798,1.995C-48.372,31.622,48.599,47.574,77.429,46.32C85.177,45.979,104.663,48.372,101.586,33.331C100.333,26.722,84.38,33.9,77.429,33.9C6.437,37.204,-65.236,-37.433,-81.759,-44.384Z" /></g></g></g></g></g></g></g></g><g id="i2"><g transform="translate(572.837,722.169)"><animateTransform repeatCount="indefinite" type="translate" attributeName="transform" dur="3.003s" begin="0s" calcMode="spline" values="572.837 722.169; 572.837 689.169; 572.837 722.169; 572.837 722.169" keyTimes="0; 0.5; 1; 1" keySplines="0.695 0 0.271 1; 0.695 0 0.271 1; 0 0 1 1" fill="freeze" /><g transform="scale(1,1) translate(-102.19,-242.346)"><g id="i11"><g transform="translate(230.485,253.822)"><g transform="rotate(0)"><animateTransform repeatCount="indefinite" type="rotate" attributeName="transform" dur="3.003s" begin="0s" calcMode="spline" values="0; 9; 0; 0" keyTimes="0; 0.5; 1; 1" keySplines="0.695 0 0.271 1; 0.695 0 0.271 1; 0 0 1 1" fill="freeze" /><g transform="scale(1,1) translate(-192.199,-19.312)"><g id="i5" transform="matrix(1,0,0,1,105.198,51.812)"><path fill="#3d1d16" d="M42.96,-23.645C59.483,-37.091,76.005,-51.562,88.083,-43.13C92.641,-39.825,104.948,-34.925,95.604,-21.935C81.588,-2.563,9.23,30.824,-15.839,35.952C-32.476,39.37,-60.165,51.563,-80.448,46.094C-94.692,42.333,-104.948,26.836,-80.904,36.522C-49.34,49.17,22.905,-7.236,42.96,-23.645Z" /></g></g></g></g></g></g></g></g><g id="i2"><g transform="translate(572.837,722.169)"><animateTransform repeatCount="indefinite" type="translate" attributeName="transform" dur="3.003s" begin="0s" calcMode="spline" values="572.837 722.169; 572.837 689.169; 572.837 722.169; 572.837 722.169" keyTimes="0; 0.5; 1; 1" keySplines="0.695 0 0.271 1; 0.695 0 0.271 1; 0 0 1 1" fill="freeze" /><g transform="scale(1,1) translate(-102.19,-242.346)"><g transform="matrix(1,0,0,1,-79.31,-188.702)" id="i12"><g id="i13"><g transform="translate(267.707,32.134)"><g transform="rotate(0)"><animateTransform repeatCount="indefinite" type="rotate" attributeName="transform" dur="3.003s" begin="0s" calcMode="spline" values="0; 10; 0; 0" keyTimes="0; 0.5; 1; 1" keySplines="0.695 0 0.271 1; 0.695 0 0.271 1; 0 0 1 1" fill="freeze" /><g transform="scale(1,1) translate(-47.897,-175.027)"><g id="i6" transform="matrix(1,0,0,1,61.897,105.027)"><path fill="#fe8627" d="M41.934,104.777C61.647,60.564,47.517,-79.594,-12.192,-104.777C-61.419,-59.424,-60.963,26.494,-61.647,51.905C-40.11,52.475,-5.469,74.352,41.934,104.777Z" /></g><g id="i5" transform="matrix(1,0,0,1,66.626,105.027)"><path fill="#f7e6c9" d="M-14.756,-103.866C-15.44,-104.208,-16.352,-104.549,-16.922,-104.777C-50.31,-49.397,-23.531,67.972,38.458,102.271C43.244,104.778,50.31,47.232,40.852,-1.767C34.129,-42.789,17.378,-88.597,-14.756,-103.866Z" /></g></g></g></g></g></g></g></g></g><g id="i2"><g transform="translate(572.837,722.169)"><animateTransform repeatCount="indefinite" type="translate" attributeName="transform" dur="3.003s" begin="0s" calcMode="spline" values="572.837 722.169; 572.837 689.169; 572.837 722.169; 572.837 722.169" keyTimes="0; 0.5; 1; 1" keySplines="0.695 0 0.271 1; 0.695 0 0.271 1; 0 0 1 1" fill="freeze" /><g transform="scale(1,1) translate(-102.19,-242.346)"><g transform="matrix(1,0,0,1,-79.31,-188.702)" id="i12"><g id="i14"><g transform="translate(104.588,34.204)"><g transform="rotate(0)"><animateTransform repeatCount="indefinite" type="rotate" attributeName="transform" dur="3.003s" begin="0s" calcMode="spline" values="0; -10; 0; 0" keyTimes="0; 0.5; 1; 1" keySplines="0.695 0 0.271 1; 0.695 0 0.271 1; 0 0 1 1" fill="freeze" /><g transform="scale(1,1) translate(-76.897,-173.11)"><g id="i6" transform="matrix(1,0,0,1,61.897,105.028)"><path fill="#fe8627" d="M-41.934,104.777C-61.647,60.564,-47.518,-79.594,12.192,-104.777C61.419,-59.424,60.963,26.494,61.647,51.905C40.11,52.475,5.469,74.352,-41.934,104.777Z" /></g><g id="i5" transform="matrix(1,0,0,1,56.313,106.11)"><path fill="#f7e6c9" d="M15.612,-104.948C16.296,-105.176,17.207,-105.632,17.777,-105.86C51.164,-50.48,25.64,69.168,-36.235,103.467C-41.135,105.86,-51.163,42.732,-39.996,-2.848C-33.273,-43.871,-16.522,-89.565,15.612,-104.948Z" /></g></g></g></g></g></g></g></g></g><g id="i2"><g transform="translate(572.837,722.169)"><animateTransform repeatCount="indefinite" type="translate" attributeName="transform" dur="3.003s" begin="0s" calcMode="spline" values="572.837 722.169; 572.837 689.169; 572.837 722.169; 572.837 722.169" keyTimes="0; 0.5; 1; 1" keySplines="0.695 0 0.271 1; 0.695 0 0.271 1; 0 0 1 1" fill="freeze" /><g transform="scale(1,1) translate(-102.19,-242.346)"><g transform="matrix(1,0,0,1,-79.31,-188.702)" id="i12"><g id="i6" transform="matrix(1,0,0,1,186.388,104.116)"><path fill="#fe8627" d="M186.138,-2.678C179.985,-0.969,160.499,13.161,152.637,13.617C159.246,16.352,175.768,13.845,182.264,16.58C105.803,52.36,53.614,93.382,-5.071,103.866C-52.816,90.078,-136.569,47.46,-178.389,15.098C-176.338,13.275,-163.348,13.731,-154.801,9.401C-163.12,8.375,-182.035,4.615,-186.138,1.082C-108.196,-45.523,-96.801,-103.866,8.034,-102.498C80.05,-101.587,134.405,-39.028,186.138,-2.678Z" /></g><g id="i5" transform="matrix(1,0,0,1,188.325,155.337)"><path d="M151.383,-37.49C159.132,-36.692,175.199,-36.806,180.326,-34.641C103.98,3.418,50.879,45.01,-7.008,52.645C-56.007,39.427,-139.646,-3.419,-180.326,-36.123C-178.275,-37.946,-165.285,-37.49,-156.853,-41.82C-123.693,-48.543,-71.162,-47.404,-27.861,-32.704C-25.81,-32.476,-22.163,-27.348,-19.428,-27.12C-13.845,-26.437,-6.78,-30.311,-2.336,-29.855C3.589,-29.286,9.401,-22.676,18.973,-30.425C66.604,-45.694,93.61,-52.645,151.383,-37.49Z" fill="#f7e6c9"><animate repeatCount="indefinite" attributeName="d" dur="3.003s" begin="0s" calcMode="spline" values="M151.383,-37.49C159.132,-36.692,175.199,-36.806,180.326,-34.641C103.98,3.418,50.879,45.01,-7.008,52.645C-56.007,39.427,-139.646,-3.419,-180.326,-36.123C-178.275,-37.946,-165.285,-37.49,-156.853,-41.82C-123.693,-48.543,-71.162,-47.404,-27.861,-32.704C-25.81,-32.476,-22.163,-27.348,-19.428,-27.12C-13.845,-26.437,-6.78,-30.311,-2.336,-29.855C3.589,-29.286,9.401,-22.676,18.973,-30.425C66.604,-45.694,93.61,-52.645,151.383,-37.49Z; M151.383,-37.49C159.132,-36.692,175.199,-36.806,180.326,-34.641C103.98,3.418,50.879,45.01,-7.008,52.645C-56.007,39.427,-139.646,-3.419,-180.326,-36.123C-178.275,-37.946,-165.285,-37.49,-156.853,-41.82C-123.693,-48.543,-71.162,-56.654,-27.861,-41.954C-25.81,-41.726,-22.163,-36.598,-19.428,-36.37C-13.845,-35.687,-6.78,-39.561,-2.336,-39.105C3.589,-38.536,9.401,-31.926,18.973,-39.675C66.604,-54.944,93.61,-52.645,151.383,-37.49Z; M151.383,-37.49C159.132,-36.692,175.199,-36.806,180.326,-34.641C103.98,3.418,50.879,45.01,-7.008,52.645C-56.007,39.427,-139.646,-3.419,-180.326,-36.123C-178.275,-37.946,-165.285,-37.49,-156.853,-41.82C-123.693,-48.543,-71.162,-47.404,-27.861,-32.704C-25.81,-32.476,-22.163,-27.348,-19.428,-27.12C-13.845,-26.437,-6.78,-30.311,-2.336,-29.855C3.589,-29.286,9.401,-22.676,18.973,-30.425C66.604,-45.694,93.61,-52.645,151.383,-37.49Z" keyTimes="0; 0.5; 1" keySplines="0.695 0 0.271 1; 0.695 0 0.271 1" fill="freeze" /></path></g></g></g></g></g><g id="i2"><g transform="translate(572.837,722.169)"><animateTransform repeatCount="indefinite" type="translate" attributeName="transform" dur="3.003s" begin="0s" calcMode="spline" values="572.837 722.169; 572.837 689.169; 572.837 722.169; 572.837 722.169" keyTimes="0; 0.5; 1; 1" keySplines="0.695 0 0.271 1; 0.695 0 0.271 1; 0 0 1 1" fill="freeze" /><g transform="scale(1,1) translate(-102.19,-242.346)"><g transform="matrix(1,0,0,1,-79.31,-188.702)" id="i12"><g id="i15"><g transform="translate(185.603,152.931)"><animateTransform repeatCount="indefinite" type="translate" attributeName="transform" dur="3.003s" begin="0s" calcMode="spline" values="185.603 152.931; 185.603 142.931; 185.603 152.931; 185.603 152.931" keyTimes="0; 0.5; 1; 1" keySplines="0.695 0 0.271 1; 0.695 0 0.271 1; 0 0 1 1" fill="freeze" /><g transform="scale(1,1) translate(-20.575,-5.338)"><g id="i5" transform="matrix(1,0,0,1,20.574,5.338)"><path fill="#eace9e" d="M0.121,5.087C-7.089,5.087,-13.807,2.961,-19.29,-1.257C-20.161,-1.928,-20.325,-3.179,-19.654,-4.053C-18.982,-4.922,-17.732,-5.087,-16.857,-4.416C-7.985,2.407,4.741,2.929,17.187,-3.038C18.188,-3.511,19.375,-3.093,19.848,-2.102C20.325,-1.109,19.904,0.083,18.91,0.558C12.594,3.584,6.184,5.087,0.121,5.087Z" /></g></g></g></g></g></g></g></g><g id="i2"><g transform="translate(572.837,722.169)"><animateTransform repeatCount="indefinite" type="translate" attributeName="transform" dur="3.003s" begin="0s" calcMode="spline" values="572.837 722.169; 572.837 689.169; 572.837 722.169; 572.837 722.169" keyTimes="0; 0.5; 1; 1" keySplines="0.695 0 0.271 1; 0.695 0 0.271 1; 0 0 1 1" fill="freeze" /><g transform="scale(1,1) translate(-102.19,-242.346)"><g transform="matrix(1,0,0,1,-79.31,-188.702)" id="i12"><g id="i16"><g transform="translate(183.925,109.35)"><animateTransform repeatCount="indefinite" type="translate" attributeName="transform" dur="3.003s" begin="0s" calcMode="spline" values="183.925 109.35; 183.925 99.349; 183.925 109.35; 183.925 109.35" keyTimes="0; 0.5; 1; 1" keySplines="0.695 0 0.271 1; 0.695 0 0.271 1; 0 0 1 1" fill="freeze" /><g transform="scale(1,1) translate(-25.983,-22.633)"><g id="i17" transform="matrix(1,0,0,1,26.452,13.525)"><path fill="#0c1416" d="M2.393,13.275C6.495,10.996,22.562,5.071,19.486,-5.185C12.649,-13.275,-11.965,-12.364,-16.637,-5.185C-22.562,4.045,-1.367,12.591,2.393,13.275Z" /></g><g id="i6" transform="matrix(1,0,0,1,27.534,31.794)"><path fill="#141515" d="M-0.171,7.169C-0.171,7.169,-0.233,7.169,-0.233,7.169C-1.334,7.132,-2.2,6.296,-2.162,5.195C-2.162,5.195,-1.821,-5.172,-1.821,-5.172C-1.787,-6.272,-0.777,-7.169,0.236,-7.1C1.337,-7.065,2.2,-6.144,2.165,-5.043C2.165,-5.043,1.829,5.158,1.829,5.158C1.794,6.238,0.903,7.169,-0.171,7.169Z" /></g><g id="i5" transform="matrix(1,0,0,1,25.983,39.01)"><path fill="#141515" d="M-12.288,5.767C-12.696,5.767,-13.102,5.754,-13.508,5.727C-18.423,5.381,-22.553,2.997,-25.134,-0.983C-25.734,-1.908,-25.471,-3.142,-24.547,-3.741C-23.62,-4.344,-22.385,-4.079,-21.788,-3.154C-19.904,-0.249,-16.864,1.492,-13.227,1.747C-8.485,2.071,-3.466,-0.102,-0.125,-3.947C-0.125,-3.947,1.668,-6.005,1.668,-6.005C1.668,-6.005,3.085,-3.672,3.085,-3.672C5.719,0.664,9.861,1.543,12.095,1.68C15.965,1.941,19.995,0.383,21.923,-2.055C22.608,-2.917,23.861,-3.059,24.725,-2.38C25.586,-1.695,25.734,-0.441,25.051,0.422C22.274,3.93,17.079,6.005,11.848,5.661C7.52,5.394,3.8,3.561,1.147,0.44C-2.591,3.81,-7.487,5.767,-12.288,5.767Z" /></g></g></g></g></g></g></g></g><g id="i2"><g transform="translate(572.837,722.169)"><animateTransform repeatCount="indefinite" type="translate" attributeName="transform" dur="3.003s" begin="0s" calcMode="spline" values="572.837 722.169; 572.837 689.169; 572.837 722.169; 572.837 722.169" keyTimes="0; 0.5; 1; 1" keySplines="0.695 0 0.271 1; 0.695 0 0.271 1; 0 0 1 1" fill="freeze" /><g transform="scale(1,1) translate(-102.19,-242.346)"><g transform="matrix(1,0,0,1,-79.31,-188.702)" id="i12"><g id="i18"><g transform="translate(184.906,69.838)"><animateTransform repeatCount="indefinite" type="translate" attributeName="transform" dur="3.003s" begin="0s" calcMode="spline" values="184.906 69.838; 184.906 59.838; 184.906 69.838; 184.906 69.838" keyTimes="0; 0.5; 1; 1" keySplines="0.695 0 0.271 1; 0.695 0 0.271 1; 0 0 1 1" fill="freeze" /><g transform="scale(1,1) translate(-80.154,-6.383)"><g id="i6" transform="matrix(1,0,0,1,139.681,6.415)"><path fill="#141515" d="M18.128,6.101C17.694,6.101,17.258,5.961,16.891,5.67C8.274,-1.16,-4.822,-1.849,-17.274,3.868C-18.277,4.334,-19.459,3.888,-19.918,2.889C-20.377,1.888,-19.939,0.703,-18.938,0.244C-5.114,-6.102,9.566,-5.222,19.369,2.545C20.232,3.228,20.377,4.482,19.692,5.345C19.3,5.842,18.717,6.101,18.128,6.101Z" /></g><g id="i5" transform="matrix(1,0,0,1,20.627,6.383)"><path fill="#141515" d="M-18.128,6.133C-18.717,6.133,-19.3,5.874,-19.692,5.377C-20.377,4.514,-20.232,3.259,-19.368,2.576C-9.462,-5.277,4.861,-6.133,18.933,0.272C19.936,0.729,20.377,1.911,19.922,2.914C19.465,3.915,18.291,4.359,17.28,3.903C4.592,-1.873,-8.18,-1.196,-16.891,5.701C-17.258,5.992,-17.694,6.133,-18.128,6.133Z" /></g></g></g></g></g></g></g></g><g id="i2"><g transform="translate(572.837,722.169)"><animateTransform repeatCount="indefinite" type="translate" attributeName="transform" dur="3.003s" begin="0s" calcMode="spline" values="572.837 722.169; 572.837 689.169; 572.837 722.169; 572.837 722.169" keyTimes="0; 0.5; 1; 1" keySplines="0.695 0 0.271 1; 0.695 0 0.271 1; 0 0 1 1" fill="freeze" /><g transform="scale(1,1) translate(-102.19,-242.346)"><g transform="matrix(1,0,0,1,-79.31,-188.702)" id="i12"><g id="i19"><g transform="translate(187.243,86.966)"><animateTransform repeatCount="indefinite" type="translate" attributeName="transform" dur="3.003s" begin="0s" calcMode="spline" values="187.243 86.966; 187.243 76.966; 187.243 86.966; 187.243 86.966" keyTimes="0; 0.5; 1; 1" keySplines="0.695 0 0.271 1; 0.695 0 0.271 1; 0 0 1 1" fill="freeze" /><g transform="scale(1,1) translate(-104.4,-7.657)"><g id="i6" transform="matrix(1,0,0,1,22.584,8.226)"><path fill="#faa967" d="M0,6.837C12.307,6.837,22.334,3.76,22.334,0C22.334,-3.761,12.307,-6.837,0,-6.837C-12.307,-6.837,-22.334,-3.761,-22.334,0C-22.334,3.76,-12.307,6.837,0,6.837Z" /></g><g id="i5" transform="matrix(1,0,0,1,186.16,7.087)"><path fill="#faa967" d="M0.057,6.837C12.364,6.837,22.391,3.76,22.391,0C22.391,-3.76,12.364,-6.837,0.057,-6.837C-12.25,-6.837,-22.391,-3.76,-22.391,0C-22.391,3.76,-12.25,6.837,0.057,6.837Z" /></g></g></g></g></g></g></g></g></svg>